<?xml version="1.0" standalone="no"?>
<!DOCTYPE svg PUBLIC "-//W3C//DTD SVG 1.1//EN" "http://www.w3.org/Graphics/SVG/1.1/DTD/svg11.dtd" >
<svg xmlns="http://www.w3.org/2000/svg">
<metadata>Generated by IcoMoon</metadata>
<defs>
<font id="icons" horiz-adv-x="1024">
<font-face units-per-em="1024" ascent="960" descent="-64" />
<missing-glyph horiz-adv-x="1024" />
<glyph unicode="&#x20;" horiz-adv-x="512" d="" />
<glyph unicode="&#xe3b;" glyph-name="Legal" d="M1022.528 301.835l-173.536 433.184c-0.736 18.112-13.216 69.984-119.936 119.2-37.44 17.12-111.84-6.848-153.44-23.008v44.064c0 35.008-28.16 63.648-62.912 63.648s-62.912-28.384-62.912-63.648v-11.744c-67.808 45.024-92.256 56.032-138.048 58.976-51.648 3.424-120.16-44.064-128.48-49.92 0 0 0 0 0 0h-0.256c-2.944-1.952-5.376-4.896-6.848-8.576l-174.752-436.864c-1.952-4.896-1.728-10.272 0.256-14.944 21.28-83.936 99.616-142.688 190.912-142.688 91.52 0 170.112 58.976 191.136 143.424 0.736 3.168 0.48 6.592-0.256 9.536 0.992 3.68 0.992 7.84-0.48 11.744l-165.92 414.848c23.488 14.688 65.344 37.216 92.256 35.008 39.904-2.432 57.504-10.784 140.48-66.56v-788.064h-100.576c-53.344 0-99.84-38.912-110.144-92.032l-4.416-22.752h555.552l-4.416 22.752c-10.272 53.12-56.544 92.032-110.144 92.032h-100.096v760.672c47.712 19.584 115.52 39.648 137.792 29.376 86.144-39.648 96.672-76.352 97.888-84.928l-171.328-432.96c-1.952-5.376-1.472-10.784 0.992-15.648 21.536-83.712 99.616-141.696 190.656-141.696 91.296 0 169.6 58.496 190.912 142.432 1.728 4.64 1.952 10.048 0 15.168zM193.6 805.515l147.328-368.832h-294.912l147.584 368.832zM192.608 307.723c-65.088 0-122.112 37.216-146.368 91.776h293.216c-24.224-54.336-81.76-91.776-146.848-91.776zM675.968-8.981c27.168 0 51.648-15.904 64.608-38.912h-455.968c12.96 23.008 37.44 38.912 64.608 38.912h326.72zM487.776 29.451v845.568c0 13.952 11.008 25.44 24.704 25.44s25.696-11.488 25.696-25.44v-845.568h-50.432zM830.4 679.979l147.584-368.096h-293.44l145.856 368.096zM831.392 182.411c-65.088 0-122.112 36.224-146.368 90.784h292.48c-24-54.592-80.768-90.784-146.112-90.784z" />
<glyph unicode="&#xe600;" glyph-name="Accounting" horiz-adv-x="768" d="M85.376 639.115h598.24v171.328h-598.24v-171.328zM129.056 767.915h511.136v-85.376h-511.136v85.376zM682.752 938.667h-597.376c-47.104 0-85.376-38.272-85.376-85.376v-853.248c0-47.104 38.272-85.376 85.376-85.376h597.376c47.104 0 85.376 38.272 85.376 85.376v853.248c0 47.104-38.272 85.376-85.376 85.376zM725.312 0.043c0-23.424-19.136-42.56-42.56-42.56h-597.376c-23.424 0-42.56 19.136-42.56 42.56v853.248c0 23.424 19.136 42.56 42.56 42.56h597.376c23.424 0 42.56-19.136 42.56-42.56v-853.248zM128.224 470.059v128.224h-42.848v-171.616h170.752v43.392h-42.848zM129.056 255.915v128.224h-43.68v-171.616h171.616v43.392h-43.68zM128.224 42.603v128.224h-42.848v-170.752h171.616v42.56h-43.68zM341.536 470.059v128.224h-42.848v-171.616h170.752v43.392h-42.848zM554.848 470.059v128.224h-42.848v-171.616h171.616v43.392h-43.68zM342.368 255.915v128.224h-43.68v-171.616h171.616v43.392h-43.68zM342.368 42.603v128.224h-43.68v-170.752h171.616v42.56h-43.68zM555.68 42.603v341.536h-43.68v-384.064h171.616v42.56h-43.68z" />
<glyph unicode="&#xe601;" glyph-name="Architecture" d="M1023.808 749.835h-784.512v189.024h-34.272v-189.024h-205.024v-31.808h205.024v-803.168h34.464v205.216h187.712v125.44c0 57.504 45.312 104.32 100.896 104.32h73.472v85.472c101.472 42.656 131.36 139.36 138.784 173.632h21.12v108.32h262.336v32.544zM574.528 378.027h-46.464c-70.816 0-128.864-59.392-128.864-132.32v-96.512h-158.784v280.416h333.92v-51.584zM583.296 458.539h-342.656v150.4h471.744c-9.312-34.848-39.584-117.088-129.056-150.4zM733.696 637.867h-493.056v80.16h493.248v-80.16z" />
<glyph unicode="&#xe602;" glyph-name="Archive" horiz-adv-x="1184" d="M0 938.667v-344.544h44.256v-679.456h1092.96v679.456h44.256v344.544h-1181.44zM1088-35.925h-989.632v630.016h989.632v-630.016zM1132.256 648.235h-1078.144v241.216h1078.144v-241.216zM426.688 382.539h337.728c12.704 0 23.072 9.408 23.072 20.704v17.184c0 11.776-10.368 21.184-23.072 21.184h-337.728c-12.704 0-23.072-9.888-23.072-21.184v-17.184c0-11.52 10.368-20.704 23.072-20.704z" />
<glyph unicode="&#xe603;" glyph-name="ArrowCircle1" d="M511.904 938.667c-282.624 0-511.904-229.056-511.904-511.904s229.28-512.096 511.904-512.096c282.816 0 511.904 229.28 511.904 512.096s-229.056 511.904-511.904 511.904zM583.424 149.803l-76.992 76.992 146.24 143.296h-450.176v109.408h449.152l-144.96 147.68 77.184 76.992 276.544-277.376-276.96-276.96z" />
<glyph unicode="&#xe604;" glyph-name="ArrowCircle2" horiz-adv-x="1216" d="M706.112 938.667l-143.072-142.304 267.616-272.64h-830.656v-202.24h832.96l-269.92-264.512 141.92-142.304 513.92 512z" />
<glyph unicode="&#xe605;" glyph-name="Award" horiz-adv-x="1088" d="M1021.184 938.667c-1.632 0-2.816-0.224-4.48-0.48h-118.144v0.48l-812.416-0.48c-1.408 0-2.816 0.48-4.48 0.48-45.184 0-81.664-36.704-81.664-81.888 0-22.816 9.184-43.296 24.256-58.144l180.032-180.512v13.408c0-185.44 140.256-336.544 322.432-347.136v-330.208h-162.4v-39.296h374.208v39.296h-162.4v330.208c182.144 10.592 322.432 161.92 322.432 347.136v-13.408l180.032 180.512c15.072 14.816 24.256 35.552 24.256 58.144 0 45.408-36.704 81.888-81.664 81.888zM206.88 676.011l-153.92 151.808c-7.776 7.776-12 18.112-12 28.96 0 22.112 17.408 36.704 39.072 37.664 1.184-0.224 126.624 0 126.624 0v-218.4zM857.856 631.531c0-169.44-137.44-307.36-306.432-307.36s-306.432 137.92-306.432 307.36v262.88h612.608l0.224-262.88zM1049.888 827.819l-148.96-151.808v218.4c0 0 120.512-0.224 121.92 0 21.888-0.928 39.072-15.52 39.072-37.664 0-10.816-4.224-21.184-12-28.96z" />
<glyph unicode="&#xe606;" glyph-name="Careers" horiz-adv-x="1152" d="M1072.352 708.651h-222.4v160.32c0 38.464-30.464 69.696-66.656 69.696h-410.528c-36.192 0-65.504-31.232-65.504-69.696v-160.32h-241.824c-36.192 0-65.504-31.232-65.504-69.696v-655.008c0-38.464 29.312-69.696 65.504-69.696h1006.496c36.192 0 65.504 31.232 65.504 69.696v655.008c0.384 38.464-28.928 69.696-65.12 69.696zM350.336 868.971c0 12.96 10.272 23.232 22.464 23.232h410.528c12.192 0 23.232-10.272 23.232-23.232v-160.32h-32v98.624c0 25.504-19.808 46.464-43.808 46.464h-303.52c-24 0-43.040-20.96-43.040-46.464v-98.624h-34.272v160.32zM730.4 708.651h-302.752v97.856h302.752v-97.856zM1092.544-16.021c0-12.96-12.96-23.232-25.12-23.232h-996.96c-12.192 0-25.12 10.272-25.12 23.232v655.008c0 12.96 12.96 23.232 25.12 23.232h996.96c12.192 0 25.12-10.272 25.12-23.232v-655.008z" />
<glyph unicode="&#xe607;" glyph-name="Check" horiz-adv-x="1280" d="M1057.824 938.667l-583.296-581.6-252.672 251.84-221.856-220.992 474.528-473.248 805.152 803.456-221.856 220.576zM68.512 387.915l153.312 152.896 252.672-251.84 583.744 581.6 153.312-152.896-736.64-734.496-406.432 404.704z" />
<glyph unicode="&#xe608;" glyph-name="Company" horiz-adv-x="640" d="M421.088 407.723v-20.928h181.984v-408.544h-181.984v-20.928h203.136v450.4zM507.52 334.443h69.472v-26.080h-69.472v26.080zM423.392 334.443h69.472v-26.080h-69.472v26.080zM423.392 245.707h69.472v-26.080h-69.472v26.080zM507.52 245.707h69.472v-26.080h-69.472v26.080zM423.392 157.003h69.472v-26.080h-69.472v26.080zM507.52 157.003h69.472v-26.080h-69.472v26.080zM507.52 68.107h69.472v-26.080h-69.472v26.080zM423.392 68.107h69.472v-26.080h-69.472v26.080zM376.928 489.003h-37.312v86.048c0 7.808-6.272 14.080-14.272 14.080h-35.776v55.584c0 7.808-6.656 14.080-14.656 14.080h-45.696l-23.040 267.104c-0.576 7.232-6.848 12.96-14.464 12.96 0 0 0 0 0 0-7.424 0-13.696-5.696-14.272-12.96l-20.576-267.104h-40.736c-8 0-14.272-6.272-14.272-14.080v-55.584h-36.16c-8 0-14.464-6.272-14.464-14.080v-86.048h-37.12c-8 0-14.080-6.464-14.080-14.272v-546.368c0-7.808 6.080-14.080 14.080-14.080h122.592c8 0 14.656 6.272 14.656 14.080v93.088c0 23.808 19.616 43.2 44.16 43.2s44.544-19.424 44.544-43.2v-93.088c0-7.808 6.272-14.080 14.464-14.080h122.592c8 0 13.888 6.272 13.888 14.080v546.368c-0.192 8-5.888 14.272-14.080 14.272zM363.040-56.981h-93.856v78.816c0 39.232-33.12 71.2-73.472 71.2s-73.28-31.968-73.28-71.2v-78.816h-93.28v518.176h36.544c8 0 14.464 5.888 14.464 13.696v86.24h36.16c8 0 14.656 6.272 14.656 14.080v55.2h39.392c7.616 0 13.888 6.080 14.464 13.312l8 103.552 8.96-103.744c0.576-7.232 6.848-12.576 14.464-12.576h44.544v-55.968c0-7.808 6.272-14.080 14.272-14.080h36.352v-86.24c0-7.808 6.272-14.080 14.080-14.080h37.696v-517.6zM84.896 406.027h220.064v-26.080h-220.064v26.080zM85.472 331.019h220.064v-26.656h-220.064v26.656zM85.472 256.555h220.064v-26.080h-220.064v26.080zM85.472 181.931h220.064v-26.080h-220.064v26.080z" />
<glyph unicode="&#xe609;" glyph-name="Construction" horiz-adv-x="1792" d="M1782.464 96.267c-5.568 10.72-16.288 17.568-28.256 17.568h-31.68l-5.568 224c0 5.984-1.728 11.552-4.704 16.704l-61.664 102.368c-16.288 52.256-172.16 506.208-666.4 480.512-286.944-14.976-396.16-139.616-501.92-260.384-14.976-17.12-29.984-34.272-45.824-51.392-93.376-100.64-100.224-118.208-96.8-170.464 0.864-12.864 1.728-27.424-0.864-50.112-5.568-50.112-29.12-217.12-113.056-268.512-63.392-38.976-106.208-52.672-147.744-65.536-10.72-3.424-21.408-6.848-31.68-10.272-27.84-9.408-38.976-26.976-43.264-39.84-5.152-15.424-3.008-29.984 0.416-39.84 0-8.992 2.144-19.264 8.576-29.12 16.288-25.696 51.808-37.696 111.776-37.696 15.424 0 33.824 0.864 54.816 2.56 32.992 3.008 69.824 8.992 113.504 16.288 101.088 16.704 239.392 39.392 443.68 39.392 146.464 0 309.216-12 484.384-35.104 322.048-43.264 506.656-21.856 558.048 66.368 21.856 37.248 12.832 75.808 4.288 92.512zM1723.808 38.443c-9.856-16.704-51.808-56.096-228.256-56.096-73.664 0-163.584 6.848-266.816 20.992-177.728 23.968-343.488 35.968-492.512 35.968-208.992 0-350.336-23.136-453.984-40.256-41.536-6.848-77.088-12.832-108.768-15.424-63.808-5.568-95.52 0.416-104.928 4.704 0 3.424-0.864 7.296-2.144 10.72 0 0 0 0 0 0 9.856 3.424 19.712 6.432 29.984 9.856 43.264 13.696 92.064 28.704 161.888 71.936 105.792 65.088 135.776 244.128 143.904 318.208 3.008 28.256 1.728 47.552 0.864 61.248-1.728 26.976-2.144 32.544 79.232 120.352 15.84 17.12 31.68 35.104 46.688 52.672 101.504 115.648 197.44 225.28 458.24 238.976 466.816 23.552 597.856-419.264 603.008-437.696 0.864-3.008 2.144-5.568 3.424-8.128l59.104-98.496 5.984-247.104c0.416-17.984 14.56-32.128 31.68-32.128h35.968c0.416-3.84-0.864-6.848-2.56-10.272zM818.848 383.211c0-37.856-29.728-68.512-66.368-68.512s-66.368 30.688-66.368 68.512c0 37.856 29.728 68.512 66.368 68.512s66.368-30.688 66.368-68.512zM1300.672 383.211c0-37.856-29.728-68.512-66.368-68.512s-66.368 30.688-66.368 68.512c0 37.856 29.728 68.512 66.368 68.512s66.368-30.688 66.368-68.512zM1059.552 383.211c0-37.856-29.728-68.512-66.368-68.512s-66.368 30.688-66.368 68.512c0 37.856 29.728 68.512 66.368 68.512s66.368-30.688 66.368-68.512z" />
<glyph unicode="&#xe60a;" glyph-name="Documents" horiz-adv-x="832" d="M647.68 938.667h-419.008v-157.632h-228.672v-866.368h609.664v157.632h228.032v669.472l-190.048 196.896zM647.040 882.891l137.088-141.76h-137.088v141.76zM571.648-45.461h-533.664v787.232h342.688v-197.824h190.976v-589.408zM419.008 583.819v141.44l136.448-141.44h-136.448zM800 110.923h-190.048v473.216l-190.976 196.896h-151.712v117.44h341.76v-196.256h190.976v-591.296z" />
<glyph unicode="&#xe60b;" glyph-name="DownArrow" d="M512 938.667c-282.272 0-512-229.728-512-512s229.728-512 512-512 512 229.728 512 512-229.728 512-512 512zM512-34.773c-254.592 0-461.44 206.848-461.44 461.44s207.040 461.44 461.44 461.44 461.44-207.040 461.44-461.44c0-254.592-206.848-461.44-461.44-461.44zM513.216 327.147l-187.392 187.584-36.32-35.52 223.104-223.488 221.888 223.488-36.32 35.52z" />
<glyph unicode="&#xe60c;" glyph-name="EmailIntegration" horiz-adv-x="896" d="M906.72 517.867l-396.032 397.184c-14.848 14.848-34.656 23.232-55.584 23.232s-40.736-8.384-55.584-23.232l-86.432-86.048h-131.008v-132.128l-27.424-27.424-108.928-109.28-45.696-46.080v-600.16h910.528v600.544l-3.808 3.424zM869.024 504.171l-140.896-141.664v282.944l140.896-141.28zM424.992 889.931c16 16 44.16 16 60.16 0l60.544-60.16h-181.28l60.544 60.16zM581.888 793.195l109.664-110.816v-356.448l-84.16-84.544-96.736 97.12c-14.848 14.848-34.656 23.232-55.584 23.232s-40.736-8.384-55.584-23.232l-98.24-98.24-81.888 83.008v469.92h362.528zM58.272 521.675l123.776 124.16v-286.368l-142.432 143.2 18.656 19.040zM36.192 424.939v29.312l239.136-240.288-2.656-2.656-236.48-237.632v451.264zM65.504-47.637l19.424 18.656 340.064 341.6c16 16 44.16 16 60.16 0l351.872-353.376 7.616-6.848h-779.136zM873.952 448.939v-474.88l-240.672 241.824 240.672 241.44v-8.384zM327.488 682.763h254.752v-37.312h-254.752v37.312zM327.488 464.555h254.752v-37.696h-254.752v37.696zM327.488 573.483h182.016v-37.696h-182.016v37.696z" />
<glyph unicode="&#xe60d;" glyph-name="EmailPlugin" horiz-adv-x="1600" d="M1538.080 938.667h-1537.728v-1024h1593.312v1024h-55.584zM1464.608 874.699l-615.392-618.432c-28.192-28.192-76.928-28.192-105.12 0l-615.392 618.432h1335.872zM65.12 849.163l412.8-415.456-412.8-415.84v831.296zM114.624-20.597l407.84 408.992 176.32-177.088c25.888-26.272 60.928-40.736 97.504-40.736 36.928 0 71.584 14.464 97.504 40.736l176.32 177.088 407.84-408.992h-1363.296zM1529.344 17.867l-413.568 415.84 413.568 415.456v-831.296z" />
<glyph unicode="&#xe60e;" glyph-name="Engineering" horiz-adv-x="928" d="M936.608-55.349l-197.024 438.336c91.936 77.088 150.784 192.192 150.784 320.672 0 11.712-9.696 21.12-21.408 21.12-12 0-21.408-9.408-21.408-21.12 0-110.784-48.832-210.464-125.92-279.84l-114.496 254.72c0.576 5.44 1.728 10.848 1.728 16.576 0 68.544-50.528 125.088-116.8 135.648v87.104c0 11.712-10.272 21.12-22.272 21.12s-21.408-9.408-21.408-21.12v-87.104c-66.528-10.272-117.664-66.816-117.664-135.648 0-5.696 1.152-11.136 1.728-16.576l-122.784-272.704c-2.56-1.44-4.864-3.136-6.848-5.696-4-5.152-4.864-11.712-3.712-17.696l-197.024-437.76c-4.864-10.848 0-23.424 10.848-28 2.848-1.152 5.696-1.728 8.576-1.728 8.288 0 16 4.576 19.712 12.576l191.040 424.608c69.088-45.12 149.344-69.12 233.312-69.12 88.512 0 171.040 27.136 239.296 73.088l192.736-428.896c3.712-8 11.424-12.576 19.712-12.576 2.848 0 5.984 0.576 8.576 1.728 10.848 4.864 15.712 17.408 10.848 28.256zM469.152 789.899c53.12 0 95.936-42.56 95.936-95.104s-43.104-95.104-95.936-95.104-95.936 42.56-95.936 95.104 42.848 95.104 95.936 95.104zM465.184 325.579c-77.952 0-151.904 22.848-215.296 65.952l102.816 228.448c24.832-37.696 67.68-63.104 116.512-63.104s91.648 25.12 116.512 63.104l100.8-224.16c-62.528-43.968-138.784-70.24-221.312-70.24z" />
<glyph unicode="&#xe60f;" glyph-name="Enterprise" horiz-adv-x="1184" d="M1024 579.275h167.328l-603.68 359.392-587.648-359.392h147.808v-620.384h-78.848v-44.256h1043.776v44.256h-88.736v620.384zM148.512 618.827l439.392 271.36 451.168-271.36h-890.56zM201.92-40.853v620.128h108.256v-620.384h-108.256zM364.32-40.853v620.128h113.216v-620.384h-113.216zM531.648-40.853v620.128h113.216v-620.384h-113.216zM698.976-40.853v620.128h113.216v-620.384h-113.216zM861.6-40.853v620.128h118.144v-620.384h-118.144z" />
<glyph unicode="&#xe610;" glyph-name="eSig" d="M1024 774.635l-147.328 144.768-35.968-35.552-50.528 49.664c-7.296 6.848-18.848 6.848-26.112 0l-299.36-294.208c-7.296-6.848-7.296-18.4 0-25.696 3.424-3.424 8.128-5.568 12.864-5.568s9.408 1.728 12.864 5.568l286.080 281.376 37.248-36.832-634.272-624.416 42.816-41.984c-17.984 8.576-37.696 13.28-57.376 13.28-32.992 0-66.368-12.416-91.648-37.248-2.56-2.56-5.152-5.152-7.296-8.128-1.28-1.28-2.144-3.008-3.424-4.288-1.28-1.728-2.56-3.424-3.84-5.152-0.864-1.28-1.728-2.56-2.56-3.84-53.952-79.648-56.096-231.264-56.096-231.264s5.568-0.416 15.424-0.416c44.544 0 173.888 5.984 241.12 72.384 40.256 39.84 48.384 98.944 24.416 146.464l45.824-44.96 697.216 686.080zM876.672 868.011l95.072-93.376-219.264-215.424-94.656 93.376 218.848 215.424zM230.848 13.163c-41.12-40.672-113.504-54.4-165.312-59.52l83.936 82.656-26.112 25.696-80.512-79.232c6.432 48.384 19.712 107.072 44.544 143.904l1.728 2.56c0.864 1.28 1.728 2.144 3.008 4.288 0.416 0.864 1.28 1.728 2.144 3.008 1.728 1.728 3.424 3.84 5.152 5.568 17.568 17.12 40.672 26.56 65.536 26.56s47.968-9.408 65.536-26.56c36.416-35.552 36.416-93.376 0.416-128.896zM232.128 233.739l399.584 392.736 95.072-93.376-399.584-392.736-95.072 93.376z" />
<glyph unicode="&#xe611;" glyph-name="ExchangeFiles" horiz-adv-x="1152" d="M241.856 553.643l-152.64 153.6h275.232l568.672-606.784h233.568v46.144h-213.472l-568.672 606.528h-295.328l152.16 152.416-32.896 33.12-208.48-208.96 208.96-208.96zM953.248 706.507h213.472v46.624h-233.568l-225.76-240.448 34.080-31.936zM364.448 145.867h-275.232l152.16 153.6-32.896 32.896-208.48-208.736 208.96-209.216 32.896 33.12-152.64 152.16h295.328l226.72 243.264-34.080 31.712z" />
<glyph unicode="&#xe612;" glyph-name="Facebook1" horiz-adv-x="480" d="M96.48 740.747c0-25.888 0-135.84 0-135.84h-96.48v-176.992h103.936v-512.896h215.296v512.896h138.688c0 0 13.472 86.56 19.872 176.992-18.432 0-165.984 0-165.984 0s0 95.776 0 113.152c0 17.728 28.032 35.104 50.72 35.104s75.2 0 119.872 0c0 23.424 0 110.656 0 185.504-59.584 0-131.584 0-161.376 0-223.104 0-224.512-172.384-224.512-197.92z" />
<glyph unicode="&#xe613;" glyph-name="Facebook2" d="M511.904-85.109c-282.4 0-511.904 229.472-511.904 511.904s229.472 511.904 511.904 511.904 511.904-229.472 511.904-511.904-229.472-511.904-511.904-511.904zM511.904 910.635c-266.72 0-483.872-217.152-483.872-483.872s217.152-483.872 483.872-483.872 483.872 217.152 483.872 483.872-217.152 483.872-483.872 483.872z" />
<glyph unicode="&#xe614;" glyph-name="Financial" horiz-adv-x="768" d="M436.16-85.333h10.432c39.808 0.32 73.312 8.544 99.232 24.032l3.808 1.568c105.568 28.768 171.296 82.496 195.648 159.296 62.272 197.536-176.352 483.552-203.52 515.488l-8.224 9.472-11.072-6.336c-36.672-21.184-89.12-33.184-144.736-33.184-55.296 0-108.096 12.32-144.736 33.184l-11.072 6.336-8.224-9.472c-27.488-31.936-265.792-318.272-203.552-515.488 24.032-76.8 90.080-130.528 195.328-159.296l3.808-1.568c25.92-15.808 59.424-23.712 99.232-24.032h10.432c20.544 0 40.128 0.32 56.256 1.28 20.544-0.64 40.448-1.28 60.992-1.28zM716.16 108.715c-21.184-67.328-81.856-114.72-180.16-140.96l-5.056-2.528c-19.584-12.96-48.672-20.224-84.704-20.544h-10.112c-20.224 0-39.52 0.32-59.744 1.28-18.656-0.96-37.6-1.28-57.536-1.28h-10.112c-36.352 0.32-65.12 7.584-87.872 22.112l-5.376 1.888c-95.456 24.96-155.488 72.384-176.672 139.68-41.088 130.528 67.328 327.424 182.368 468.384l7.264 8.864 10.432-4.736c76.48-34.144 199.744-34.144 276.544 0l10.432 4.736 7.264-8.864c115.68-140.64 224.064-337.536 183.008-468.064zM392.224 263.915c-36.352 14.848-63.84 28.768-63.84 60.352 0 23.392 17.696 47.104 57.536 47.104 27.808 0 47.104-8.224 58.144-13.92l7.904 20.864c-14.208 7.264-29.696 11.68-47.712 13.28l-12.96 1.28v46.144h-18.976v-47.392l-12-2.528c-37.92-8.544-61.632-35.712-61.632-70.464 0-39.808 30.656-60.064 76.16-77.76 29.088-11.68 58.784-28.128 58.784-62.88 0-31.296-26.24-53.088-63.52-53.088-23.072 0-47.104 6.336-67.008 17.696l-7.584-21.184c14.848-9.152 36.992-15.808 59.104-17.376l13.92-0.96v-48.352h19.584v48.992l10.752 2.528c39.52 9.152 65.12 38.56 65.12 74.912 0 38.24-20.864 62.272-71.744 82.816zM256 665.931c3.808-2.208 66.048-18.656 118.848-22.752 52.768 4.416 115.040 20.864 118.848 22.752l4.416 2.528 97.984 208.896-134.944-18.656-86.272 79.968-86.272-79.968-134.944 18.656 97.984-208.896 4.416-2.528zM298.336 826.155l76.48 71.104 76.48-71.104 92.608 11.072-68.896-147.264-5.696-2.208c-11.68-4.736-64.48-11.68-94.496-14.528-30.016 2.848-82.496 9.792-94.496 14.528l-5.696 2.208-68.896 147.264 92.608-11.072z" />
<glyph unicode="&#xe615;" glyph-name="FlexibleStorage" horiz-adv-x="1536" d="M1254.848 507.819c0 4.288 0.416 8.576 0.416 12.864 0 230.848-177.728 417.984-396.576 417.984-158.048 0-293.792-97.216-357.6-238.112-27.84 14.56-58.688 23.136-91.648 23.136-101.504 0-185.44-77.504-201.728-179.456-120.768-43.68-207.712-164.032-207.712-305.792 0-178.592 137.472-323.36 307.072-323.36h948.608c155.040 0.864 280.096 133.184 280.096 296.352 0 163.616-125.472 296.352-280.96 296.352zM1255.264-31.381h-948.192c-140.896 0-255.68 121.216-255.68 269.824 0 115.2 69.376 217.568 173.024 254.816l28.704 10.272 5.152 31.68c12.416 77.952 76.224 134.464 151.168 134.464 23.968 0 47.104-5.984 68.512-17.12l46.688-24.832 22.688 49.696c57.376 125.92 179.456 207.296 311.36 207.296 190.592 0 345.6-163.168 345.6-364.032 0-1.28 0-2.144-0.416-3.424 0-2.56-0.416-5.568-0.416-8.128l-1.28-54.816 52.256-0.416c126.784-0.416 229.568-109.216 229.568-242.816 0.416-132.352-102.368-241.536-228.704-242.4zM773.472 178.475c-87.808 0-159.328 75.36-159.328 167.872 0 90.368 68.512 164.032 153.76 167.456v-78.816l171.296 104.064-171.296 104.064v-81.792c-110.496-3.008-199.136-98.080-199.136-215.008 0-119.072 91.648-215.84 204.704-215.84s204.704 96.352 204.704 215.84h-45.408c0-92.512-71.52-167.872-159.328-167.872z" />
<glyph unicode="&#xe616;" glyph-name="Gears" horiz-adv-x="1216" d="M428.224 675.915c-92.16 0-167.2-75.712-167.2-168.544s75.040-168.544 167.168-168.544 167.168 75.712 167.168 168.544c0 92.832-75.040 168.544-167.168 168.544zM428.224 371.339c-74.336 0-134.976 60.992-134.976 136s60.64 136 134.976 136c74.336 0 134.976-60.992 134.976-136s-60.64-136-134.976-136zM993.152 249.387c-53.088 0-96.608-43.84-96.608-97.28s43.168-97.28 96.608-97.28 96.608 43.52 96.608 97.28-43.168 97.28-96.608 97.28zM993.152 87.691c-35.296 0-64.064 29.12-64.064 64.736s28.768 64.736 64.064 64.736 64.064-29.12 64.064-64.736-28.768-64.736-64.064-64.736zM746.144 317.899c-8.576 17.824-8.896 38.72-1.376 56.864s22.624 32.544 41.12 39.392l71.264 25.344v134.976l-71.264 25.344c-18.496 6.496-33.568 20.896-41.12 39.040s-7.2 39.040 1.376 56.864l32.192 68.512-94.56 95.584-67.84-32.544c-17.472-8.576-38.72-8.896-56.512-1.376-18.144 7.552-32.192 22.624-39.040 41.12l-25.344 71.264h-133.952l-25.344-71.264c-6.496-18.496-20.896-33.568-39.040-41.44-18.144-7.552-39.040-6.848-56.512 1.376l-67.84 32.544-94.56-95.584 32.192-68.512c8.576-17.824 8.896-38.72 1.376-57.216-7.552-18.144-22.272-32.544-41.12-39.040l-70.912-25.344v-134.976l70.56-25.344c18.496-6.496 33.568-20.896 41.12-39.040s7.2-39.040-1.376-56.864l-32.192-68.512 94.56-95.584 67.84 32.544c17.472 8.576 38.72 8.896 56.512 1.376 18.144-7.552 32.192-22.624 39.040-41.12l25.344-72.288h133.952l25.024 71.616c6.496 18.848 20.896 34.272 39.392 41.792 17.824 7.552 38.368 6.848 55.84-1.376l68.16-32.544 94.56 95.584-31.52 68.864zM676.96 193.867l-47.264 22.624c-25.696 12.32-56.192 13.024-82.56 2.048-26.72-11.296-47.616-33.568-57.568-60.992l-17.472-48.992h-88.032l-17.472 49.664c-9.6 27.392-30.496 49.344-57.216 60.64-26.368 10.976-57.216 10.272-82.912-2.048l-46.944-22.624-62.336 62.688 22.272 47.616c12.32 26.368 13.024 56.864 2.048 83.584s-32.896 47.968-59.968 57.568l-48.992 17.472v88.736l48.992 17.472c27.072 9.6 48.992 30.848 60.288 57.568 10.976 27.072 10.272 57.568-2.048 83.584l-22.272 47.264 62.336 62.688 46.944-22.624c25.696-12.32 56.512-13.376 82.912-2.048 26.72 11.296 47.264 33.216 57.216 60.64l17.472 49.664h88.032l17.472-49.664c9.6-27.392 30.496-49.344 57.216-60.64 26.368-10.976 57.216-10.272 82.912 2.048l46.944 22.624 62.336-62.688-22.272-47.616c-12.32-26.368-13.024-56.864-2.048-83.584s32.896-47.968 59.968-57.568l49.344-17.472v-88.736l-49.344-17.472c-27.072-9.6-48.992-30.848-60.288-57.568-10.976-27.072-10.272-57.216 2.048-83.584l22.272-47.616-62.016-62.688zM1185.696 95.563l42.816 15.424v82.56l-42.816 15.424c-7.872 2.752-14.048 8.896-17.472 16.448-3.072 7.552-3.072 16.448 0.672 23.968l19.52 41.12-57.888 58.24-40.768-19.52c-7.552-3.424-16.448-3.776-23.968-0.672s-13.696 9.6-16.448 17.472l-15.072 43.84h-81.888l-15.072-43.84c-2.752-7.872-8.896-14.4-16.448-17.472s-16.448-3.072-23.968 0.672l-41.12 19.52-57.888-58.24 19.52-41.12c3.424-7.552 3.776-16.448 0.672-24.32-3.072-7.552-9.248-13.696-17.472-16.448l-42.816-15.424v-82.56l42.816-15.424c7.872-2.752 14.048-8.896 17.472-16.448 3.072-7.552 3.072-16.448-0.672-23.968l-19.52-41.12 57.888-58.24 41.12 19.52c7.552 3.424 16.096 3.776 23.968 0.672 7.552-3.072 13.696-9.6 16.448-17.472l15.072-43.168h81.888l15.072 42.496c2.752 7.872 8.896 14.4 16.8 17.824 7.552 3.072 16.448 2.752 23.648-0.672l41.12-19.52 57.888 58.24-19.52 41.12c-3.424 7.552-3.776 16.448-0.672 23.968 3.072 8.224 9.6 14.4 17.12 17.12zM1138.432 91.435c-6.496-16.448-6.176-34.592 1.376-50.688l9.6-20.224-25.344-25.696-20.224 9.6c-15.424 7.552-34.272 7.872-50.016 1.376-16.448-6.848-28.768-20.224-34.944-36.992l-7.552-20.896h-35.968l-7.552 21.248c-5.824 16.448-18.496 30.144-34.592 36.672s-34.592 6.176-50.368-1.376l-20.224-9.6-25.344 25.696 9.6 20.224c7.552 16.096 7.872 34.592 1.376 50.688-6.496 16.448-19.872 29.12-36.32 34.944l-20.224 7.552v36.32l20.224 7.552c16.448 5.824 29.792 18.496 36.32 34.944 6.848 16.448 6.176 34.944-1.376 50.688l-9.6 20.224 25.344 25.696 20.224-9.6c15.744-7.552 34.272-7.872 50.368-1.376 16.096 6.848 28.768 20.224 34.592 36.672l7.552 21.248h35.968l7.552-21.248c5.824-16.448 18.496-30.144 34.592-36.672s34.592-6.176 50.368 1.376l20.224 9.6 25.344-25.696-9.6-20.224c-7.552-16.096-7.872-34.592-1.376-50.688 6.496-16.448 19.872-29.12 36.32-34.944l21.248-7.552v-36.32l-21.248-7.552c-16.096-5.824-29.472-18.496-36.32-34.944z" />
<glyph unicode="&#xe617;" glyph-name="Google1" horiz-adv-x="992" d="M671.424 938.667h-277.376c-72.704 0-164.224-10.656-240.832-73.76-57.824-50.016-86.176-118.112-86.176-180.192 0-104.992 80.512-211.040 223.104-211.040 13.472 0 28.032 1.408 43.264 2.848-6.752-15.968-13.472-29.44-13.472-52.48 0-41.504 21.632-67.040 40.448-91.52-60.288-3.904-173.44-10.656-256.8-61.728-79.456-47.168-103.584-115.616-103.584-163.872 0-99.328 94.336-192.256 289.44-192.256 231.264 0 353.632 127.68 353.632 254.304 0 92.576-53.92 138.336-113.152 188l-48.608 37.6c-14.912 12.064-34.752 28.384-34.752 57.824s20.224 48.224 37.6 65.632c56.384 44.352 113.152 91.52 113.152 190.816 0 102.144-64.544 155.36-95.424 180.896h83.36l86.176 48.96zM552.96 116.491c0-83.36-68.448-145.056-197.92-145.056-144 0-236.928 68.448-236.928 163.872 0 95.776 86.176 127.68 115.616 138.336 56.384 18.784 129.12 21.632 141.184 21.632 13.472 0 20.224 0 30.848-1.408 102.848-72.352 147.2-108.896 147.2-177.344zM445.504 549.227c-21.632-21.28-57.824-37.6-91.52-37.6-115.616 0-168.128 149.312-168.128 239.072 0 35.104 6.752 71.296 29.44 99.328 21.632 26.944 59.232 44.352 93.984 44.352 111.744 0 169.536-150.4 169.536-247.232 0.352-24.128-2.496-67.040-33.344-97.888zM1007.328 482.891h-126.976v126.272h-79.456v-126.272h-127.328v-80.16h127.328v-127.328h79.456v127.328h126.976z" />
<glyph unicode="&#xe618;" glyph-name="Google2" d="M511.904-85.109c-282.4 0-511.904 229.472-511.904 511.904s229.472 511.904 511.904 511.904 511.904-229.472 511.904-511.904-229.472-511.904-511.904-511.904zM511.904 910.635c-266.72 0-483.872-217.152-483.872-483.872s217.152-483.872 483.872-483.872 483.872 217.152 483.872 483.872-217.152 483.872-483.872 483.872z" />
<glyph unicode="&#xe619;" glyph-name="Hamburger" horiz-adv-x="1600" d="M0 938.667h1594.4v-129.504h-1594.4v129.504zM0 491.275h1594.4v-129.504h-1594.4v129.504zM0 44.171h1594.4v-129.504h-1594.4v129.504z" />
<glyph unicode="&#xe61a;" glyph-name="Healthcare" horiz-adv-x="896" d="M893.984 751.691l-4.704 7.712-12.64-0.224-3.008-1.504c-5.792-2.784-20.768-5.792-45.824-5.792-31.264 0-66.816 4.512-94.88 12.192-15.008 4.064-31.264 13.696-47.136 23.136-23.36 13.92-47.552 28.064-72.384 28.064-20.128 0-37.92-9.632-52.896-28.256-24.192-30.208-26.976-65.312-28.928-88.448-0.64-7.936-1.504-18.848-2.144-20.352-13.28-8.576-26.784-13.056-40.064-13.056-2.368 0-4.512 0.224-6.208 0.416v75.808c38.112 14.784 63.84 52.48 63.84 95.296 0 56.128-44.32 101.952-99.168 101.952-54.624 0-99.168-45.824-99.168-101.952 0-42.848 25.696-80.32 63.84-95.296v-76.032c-1.92-0.224-3.84-0.224-6.208-0.416-13.28 0-26.56 4.512-38.752 12-1.728 2.784-2.56 13.504-3.2 21.408-1.92 23.136-4.704 58.272-28.928 88.448-15.008 18.848-32.768 28.256-52.896 28.256-24.832 0-49.056-14.336-72.384-28.064-15.84-9.44-32.128-19.072-47.136-23.136-28.064-7.712-63.392-12.192-94.88-12.192-25.056 0-40.064 3.008-45.824 5.792l-4.064 1.728-18.208-0.64v-15.008c0-18.432 97.248-135.776 234.112-186.112 5.344-25.28 29.12-98.080 124.64-123.584-20.352-10.912-36.832-25.472-47.552-44.128-18.624-32.128-18.848-71.104-0.224-104.512 15.2-27.616 40.48-47.328 72.384-58.048-12.224-8.352-22.912-18.624-29.984-31.904-17.792-33.632-15.2-77.76 6.432-112.864 18.432-29.568 46.912-46.272 78.816-47.136l2.368-121.024h18.624l1.504 121.44c30.624 1.92 57.6 18.208 75.392 46.688 21.632 34.912 24.192 79.232 6.432 112.672-7.072 13.28-17.792 23.552-29.984 31.904 31.904 10.72 57.184 30.624 72.384 58.048 18.432 33.408 18.208 72.384-0.416 104.512-10.912 18.624-27.2 33.408-47.776 44.128 94.24 25.696 118.88 97.664 124.448 123.168 122.304 44.768 212.672 142.432 230.464 174.336 1.92 3.84 6.624 12.192 1.92 20.576zM267.072 547.371c28.704-7.712 58.464-12.64 89.312-12.64 24.192 0 48.192 3.424 71.968 8.992l1.728-88.672c-113.504 0-151.2 58.912-163.008 92.32zM335.84 300.203c-13.28 23.776-13.28 51.84 0 74.528 16.288 28.064 50.56 45.408 94.656 49.248l3.424-175.424c-44.992 1.504-80.544 19.904-98.080 51.616zM384.032 98.635c-15.84 25.504-17.984 58.688-5.344 82.464 10.272 19.488 29.984 31.264 56.32 35.328l3.008-150.784c-21.856 1.056-41.344 12.416-53.984 32.992zM517.472 180.907c12.64-23.776 10.496-56.768-5.344-82.24-12-19.488-30.208-30.624-50.56-32.768l1.92 150.368c25.28-4.512 43.904-16.288 53.984-35.328zM560.096 374.731c13.28-22.688 13.28-50.56 0-74.528-17.12-31.072-52.032-49.472-96.16-51.616l2.368 175.2c43.68-4.064 77.76-21.216 93.824-49.056zM466.688 454.827l1.056 88.672c23.776-5.344 47.776-8.992 71.744-8.992 31.072 0 61.056 4.704 89.536 12.64-11.36-33.184-48.192-91.232-162.336-92.32zM539.744 564.267c-29.568 0-58.912 4.512-87.392 13.28l-4.064 1.28-4.064-1.28c-28.48-8.768-58.048-13.28-87.616-13.28-146.272 0-264.096 107.744-308.864 158.496 7.296-0.416 14.336-0.64 20.768-0.64 33.632 0 71.744 4.928 102.176 13.056 18.848 5.152 36.832 15.84 54.4 26.144 20.992 12.416 40.704 24.192 57.824 24.192 7.072 0 18.208-1.728 30.624-17.344 18.432-22.912 20.768-50.112 22.496-71.968 1.504-18.848 2.784-34.912 15.424-43.040 17.792-11.552 37.056-17.792 55.488-17.792 15.424 0 25.472 4.288 26.56 4.704l9.216 3.84v119.936l-11.36 2.784c-31.264 8.128-52.896 36.832-52.896 69.824 0 39.84 31.488 72.192 70.048 72.192s70.048-32.352 70.048-72.192c0-32.992-21.856-61.696-52.896-69.824l-10.72-2.784v-120.16l8.576-3.84c1.056-0.416 11.136-4.704 26.56-4.704 18.432 0 37.696 6.208 55.488 17.568 12.64 8.128 13.92 24.416 15.424 43.040 1.728 21.856 4.064 49.056 22.496 71.968 12.416 15.648 23.552 17.344 30.624 17.344 17.12 0 36.832-11.776 57.824-24.192 17.568-10.272 35.552-21.216 54.4-26.144 30.208-8.128 68.544-13.056 102.176-13.056 6.432 0 13.504 0.224 20.768 0.64-45.408-50.336-163.424-158.080-309.504-158.080z" />
<glyph unicode="&#xe61b;" glyph-name="IndustrySpecific" d="M996.576 77.643l-202.592 202.208 27.040 27.040-27.040 27.040-80.736-80.736-134.816 134.816 162.24 162.24c21.696-7.616 44.16-11.424 67.392-11.424 53.312 0 103.584 20.96 141.28 58.656 58.272 58.272 75.008 145.088 42.272 220.864l-11.040 25.888-87.584-87.584h-69.312v65.888l88.736 88.736-25.888 11.040c-25.12 11.040-52.16 16.384-79.584 16.384-53.312 0-103.584-20.96-141.28-58.656-55.232-55.232-73.12-135.936-46.848-209.056l-161.856-161.856-229.248 229.248 27.040 27.040-148.128 148.128-81.12-80.736 148.512-148.512 27.040 27.040 229.248-229.248-162.592-161.856c-21.696 7.616-44.16 11.808-67.776 11.808-53.312 0-103.584-20.96-141.28-58.656-58.656-58.272-75.008-145.088-42.272-221.248l11.040-25.888 88.736 91.008h66.656v-71.2l-87.968-86.816 25.888-11.040c25.12-10.656 51.776-16.384 79.584-16.384 53.312 0 103.584 20.96 141.28 58.656 55.232 55.232 73.12 135.936 46.848 208.672l162.24 162.24 134.816-134.816-79.968-81.504 27.040-27.040 27.040 27.040 202.208-202.208c17.888-17.888 41.888-28.192 67.392-28.192s49.504 9.888 67.392 28.192c36.928 36.928 36.928 97.504 0 134.816zM173.664 738.731l-94.432 94.432 27.040 27.040 94.432-94.432-27.040-27.040zM344.256 207.499l4.96-11.808c26.272-61.312 12.96-131.776-34.272-178.976-30.464-30.464-71.2-47.232-114.624-47.232-12.576 0-24.768 1.536-36.544 4.192l54.464 55.968v123.008h-118.048l-57.888-57.504c-12.576 54.080 3.040 111.2 43.424 151.168 30.464 30.464 71.2 47.616 114.624 47.616 22.464 0 44.16-4.576 64.736-13.312l11.808-4.96 386.912 386.912-4.96 11.808c-26.656 61.312-13.312 131.776 33.888 178.976 30.464 30.464 71.2 47.616 114.624 47.616 12.576 0 24.768-1.536 36.928-4.192l-57.888-58.272v-121.472h122.624l56.352 57.888c12.576-54.080-3.040-110.816-43.424-151.168-30.464-30.464-71.2-47.232-114.624-47.232-22.464 0-44.16 4.576-64.352 13.312l-11.808 4.96-386.912-387.296zM969.536-30.101c-10.656-10.656-25.12-16.768-40.352-16.768s-29.696 6.080-40.352 16.768l-202.208 202.208 80.736 80.736 202.208-202.208c22.080-22.080 22.080-58.656 0-80.736z" />
<glyph unicode="&#xe61c;" glyph-name="Insurance" d="M511.872 938.667c-282.304 0-511.872-233.792-511.872-520.832 0-7.392 4.224-13.984 10.816-17.12 6.336-2.912 14.24-1.856 19.776 2.912 13.984 11.328 62.208 46.4 118.336 46.4 36.896 0 70.368-15.296 100.16-45.344 3.424-3.424 7.904-5.536 11.328-5.536 6.848 0 11.328 2.112 15.040 5.792 0.256 0.256 50.336 51.392 115.456 51.392 34.528 0 68.256-14.752 99.904-43.744l3.168-2.912v-345.824c0-82.24 65.376-149.184 146.272-149.184 80.64 0 146.56 66.944 146.56 149.184 0 10.272-8.16 18.72-18.464 18.72s-18.464-8.448-18.464-18.72c0-61.408-49.024-111.488-109.664-111.488-60.352 0-109.92 50.080-109.92 111.488v345.824l3.168 2.912c31.616 28.992 65.376 43.744 99.904 43.744 65.12 0 115.168-51.136 115.712-51.648 3.424-3.424 7.904-5.536 13.184-5.792 0 0 0 0 0 0 6.592 0 10.528 2.912 12.928 5.536 29.536 30.048 63.264 45.344 100.16 45.344 64.32 0 118.336-46.4 118.88-46.912 4.736-4.224 13.184-5.28 19.232-2.624 6.592 3.168 10.816 9.76 10.816 17.12-0.512 287.552-230.112 521.344-512.384 521.344zM242.24 475.307l-0.8-15.296-13.184 7.104c-52.704 28.48-113.344 26.624-174.24-4.224l-15.808-7.904 2.112 17.92c21.6 192.928 153.92 353.184 337.376 408.544l39.264 11.872-30.048-28.48c-80.928-76.448-134.944-221.92-144.704-389.568zM493.696 459.211l-15.040 8.96c-57.184 35.040-122.56 34.016-185.024-3.168l-15.552-9.216 1.056 18.464c13.184 206.368 98.048 376.384 201.888 404.064l12.384 3.168 0.256-422.24zM730.112 465.003c-62.72 37.152-127.84 37.952-185.28 3.168l-14.24-8.96v422.24l11.584-3.168c103.84-27.424 188.992-197.408 202.176-404.064l1.056-18.464-15.296 9.216zM969.952 462.923c-61.408 31.104-121.76 32.672-174.24 4.224l-13.184-7.104-1.056 15.296c-10.016 167.648-64.064 313.12-144.448 389.312l-30.048 28.48 39.264-11.872c183.456-55.104 315.776-215.616 337.376-408.288l2.112-17.92-15.808 7.904z" />
<glyph unicode="&#xe61d;" glyph-name="Secure-web-portal" d="M198.4 627.211c0 19.2 16 32 32 32 19.2 0 32-16 32-32 0-19.2-16-32-32-32-19.2-3.2-32 12.8-32 32zM332.8 592.011c19.2 0 32 16 32 32 0 19.2-16 32-32 32-19.2 0-32-16-32-32s16-32 32-32zM438.4 592.011c19.2 0 32 16 32 32 0 19.2-16 32-32 32-19.2 0-32-16-32-32-3.2-16 12.8-32 32-32zM924.8 710.411v-656c0-9.6-6.4-16-16-16h-793.6c-9.6 0-16 6.4-16 16v656c0 9.6 6.4 16 16 16h793.6c9.6 0 16-6.4 16-16zM131.2 694.411v-140.8h761.6v140.8h-761.6zM892.8 73.611v451.2h-761.6v-451.2h761.6zM662.4 323.211v-163.2c0-9.6-6.4-16-16-16h-230.4c-9.6 0-16 6.4-16 16v163.2c0 9.6 6.4 16 16 16h16v32c0 54.4 44.8 99.2 99.2 99.2s99.2-44.8 99.2-99.2v-32h16c6.4 0 16-6.4 16-16zM464 339.211h131.2v32c0 35.2-28.8 67.2-67.2 67.2-35.2 0-67.2-28.8-67.2-67.2v-32zM630.4 307.211c-67.2 0-131.2 0-198.4 0v-131.2h198.4v131.2zM531.2 272.011c-19.2 0-32-16-32-32s16-32 32-32c19.2 0 32 16 32 32s-16 32-32 32z" />
<glyph unicode="&#xe61e;" glyph-name="LinkTriangle" horiz-adv-x="992" d="M0 938.667l982.88-512-982.88-512v1024z" />
<glyph unicode="&#xe61f;" glyph-name="MakeLifeEasier" horiz-adv-x="1088" d="M1102.816 588.651c0 88.288-34.272 171.328-96.736 233.792-61.664 61.664-147.616 92.768-243.296 88.288-73.792-3.68-145.216-29.792-202.944-72.736l-3.68 3.68c-128.896 128.896-338.688 128.896-467.584 0-119.136-119.136-117.024-331.328 0-466.528l-0.512-0.512 45.6-45.6 13.984 13.984c-5.536-11.872-8.704-24.768-8.704-38.208 0-24 9.216-46.4 26.080-63.264 19.776-19.776 47.712-29.248 74.592-26.368-0.256-3.424-0.512-7.104-0.512-10.816 0-24 9.216-46.4 26.080-63.264 19.776-19.776 47.712-29.248 74.592-26.368-0.256-3.424-0.512-7.104-0.512-10.816 0-24 9.216-46.4 26.080-63.264 19.776-19.776 47.712-29.248 74.592-26.368-0.256-3.424-0.512-7.104-0.512-10.816 0-24 9.216-46.4 26.080-63.264s39.264-26.368 62.72-26.88c0.512 0 1.056 0 1.568 0 23.456 0 45.344 8.96 61.952 25.568l69.6 69.6c15.808 15.808 24.768 36.896 25.824 59.296 9.504-3.424 19.232-5.28 29.536-5.28 24 0 46.4 9.216 63.008 26.080 16.864 16.864 26.368 39.264 26.88 62.72 0 4.224-0.512 8.16-1.056 12.384 3.68-0.512 7.392-1.056 11.072-1.056 22.944 0 45.6 8.704 63.008 26.080 20.544 20.544 28.992 48.512 25.568 75.136 3.68-0.512 7.392-1.056 11.328-1.056 24 0 46.4 9.216 63.008 26.080 17.92 17.92 26.88 41.632 26.624 65.12 62.464 63.776 96.736 146.56 96.736 234.592zM764.64 872.523c84.096 4.224 160.256-23.2 214.304-77.216 108.32-108.32 113.344-281.504 15.552-396.16-3.68 6.336-7.904 12.384-13.184 17.664l-307.584 307.584-13.984 14.496-15.296-13.184-119.936-120.192c-24.768-25.056-56.928-39.008-90.944-39.264-0.256 0-0.256 0-0.512 0-26.624 0-51.648 8.448-72.736 23.712l188.192 188.448c55.872 55.616 134.432 90.144 216.128 94.112zM264.096 268.139c-18.976-18.976-52.448-18.464-71.968 1.056-9.504 9.504-15.040 22.4-15.040 36.096s5.28 26.368 15.040 36.096l69.6 69.6c9.504 9.504 22.144 14.24 35.040 14.24 13.44 0 26.88-5.28 37.152-15.552 9.504-9.504 15.040-22.4 15.040-36.096s-5.28-26.368-15.040-36.096l-69.856-69.312zM364.256 167.691c-18.976-18.976-52.448-18.464-71.968 1.056-9.504 9.504-15.040 22.4-15.040 36.096s5.28 26.368 15.040 36.096l69.6 69.6c9.216 9.216 21.6 14.24 34.784 14.24 0.256 0 0.512 0 0.8 0 13.696-0.256 26.624-5.792 36.384-15.552 9.504-9.504 14.752-22.4 14.752-36.096s-5.28-26.368-14.752-36.096l-69.6-69.312zM464.416 67.819c-18.976-18.976-52.448-18.464-71.968 1.056-9.504 9.504-15.040 22.4-15.040 36.096s5.28 26.368 15.040 36.096l69.6 69.6c9.504 9.504 22.144 14.24 35.040 14.24 13.44 0 26.88-5.28 37.152-15.552 19.776-19.776 19.776-52.192 0-71.968l-69.856-69.6zM634.176 37.227l-69.6-69.856c-19.52-19.52-51.648-18.976-71.968 1.312-9.504 9.504-15.040 22.4-15.040 36.096s5.28 26.368 15.040 36.096l69.312 69.6c9.504 9.504 22.144 14.24 35.072 14.24 13.44 0 26.88-5.28 37.152-15.552 9.504-9.504 15.040-22.4 15.040-36.096 0-13.44-5.28-26.368-15.040-35.84zM952.832 317.675c-19.232-19.232-52.992-19.232-71.968 0l-93.312 93.312-0.256-0.256-113.088 113.088-27.136-27.136 206.912-207.168c19.52-19.52 18.976-51.936-1.056-71.968-19.776-20.032-52.192-19.776-71.968 0l-206.912 207.168-27.136-27.136 206.912-207.168c0.256-0.256 0.512-0.256 0.8-0.512l-0.256-0.256c19.52-19.52 18.976-51.936-1.312-71.968-19.232-19.232-52.992-24-71.968-4.736l-3.424 1.312c-4.224 8.16-9.216 15.808-15.808 22.4-16.864 16.864-39.264 26.368-62.72 26.88-3.968 0-7.904 0-11.872-0.512 3.168 26.368-5.28 53.76-25.568 74.080-20.544 20.544-48.224 29.248-74.592 26.080 0.256 3.68 0.512 7.104 0.512 10.816 0 24-9.216 46.4-26.080 63.264s-39.264 26.368-62.72 26.88c-3.68 0-7.904 0-11.872-0.512 0.256 3.424 0.512 7.104 0.512 10.816 0 24-9.216 46.4-26.080 63.264-35.040 35.040-91.712 35.584-126.24 1.056l-69.6-69.6c-2.624-2.624-5.024-5.792-7.392-8.96l-25.024 25.024c-119.136 119.136-127.040 320.256-17.12 430.432 113.856 113.856 299.424 113.856 413.28 0l1.056-1.056-224.832-225.088 13.44-13.44c30.848-30.848 71.424-47.456 114.656-47.456 0.256 0 0.512 0 0.8 0 44.288 0.256 86.464 18.176 118.080 50.592l106.752 107.008 295.456-295.456c18.976-20.544 18.464-52.992-1.856-73.024z" />
<glyph unicode="&#xe620;" glyph-name="Manufacturing" horiz-adv-x="768" d="M710.24 369.579l-16.064 405.216h-110.528l-16.064-405.216h-50.336v60.192l-118.432-43.040v43.040l-118.432-41.984v41.984l-118.432-46.688v46.688l-161.92-85.248v-430.080h439.712v113.952h181.856v-113.952h146.496v455.136h-57.824zM737.44-53.429h-85.248v114.592h-243.744v-114.592h-377.184v385.536l106.24 57.6v-42.208l119.712 46.688v-42.848l119.072 44.768v-47.136l115.872 45.184 0.224-56.32h104.736l16.064 405.216h51.2l16.064-405.216h56.96v-391.296zM79.456 218.155h107.52v-64.672h-107.52v64.672zM244.608 218.155h106.88v-64.672h-106.88v64.672zM409.088 218.155h107.52v-64.672h-107.52v64.672zM572.928 218.155h108.16v-64.672h-108.16v64.672zM334.56 822.795c0 0 76.672-94.656 155.296-17.568 78.816 77.12 136.224 32.992 136.224 32.992s-40.48 105.792-148.864 0c-58.272-56.768-142.656-15.424-142.656-15.424zM265.376 858.763c78.816 77.12 136.224 32.992 136.224 32.992s-40.48 105.792-148.864 0c-58.272-56.768-142.432-15.424-142.432-15.424s76.448-94.656 155.072-17.568z" />
<glyph unicode="&#xe621;" glyph-name="Mobile" horiz-adv-x="608" d="M562.176 938.667h-510.464c-28.768 0-52.064-22.944-52.064-51.392v-921.216c0-28.448 23.296-51.392 52.064-51.392h510.112c28.768 0 52.064 22.944 52.064 51.392v921.216c0 28.448-22.944 51.392-51.744 51.392zM577.248-33.589c0-7.552-7.552-13.376-15.072-13.376h-510.464c-7.552 0-13.024 6.176-13.024 13.376v176.096h538.56v-176.096zM575.2 181.195h-536.48v605.024h536.48v-605.024zM576.224 823.915h-537.536v63.392c0 7.552 5.472 13.376 13.024 13.376h510.112c7.552 0 14.048-6.176 14.048-13.376v-63.392zM249.76 67.467h115.808v-38.72h-115.808v38.72z" />
<glyph unicode="&#xe622;" glyph-name="Phone" horiz-adv-x="1056" d="M312.512 350.379c-7.136 0-20.192-2.048-42.432-11.616-24.288-10.816-52-23.264-83.84-37.12-62.816-28.544-108.512-48.96-136.256-61.184-23.872-10.4-39.36-22.432-45.696-36.096-6.336-13.856-5.92-33.44 1.44-58.336 8.352-29.184 20.384-57.312 35.488-84.448 15.296-27.136 33.248-52.224 53.664-74.656 19.776-22.016 43.040-39.776 69.152-53.248 25.28-12.864 52-19.392 79.36-19.392h1.632c64.672 0.832 146.656 25.504 243.552 73.44 97.504 48.128 190.112 115.040 274.976 198.688 84.864 83.424 152.992 174.624 202.336 270.88 48.96 95.68 74.048 176.032 74.848 239.264 0.192 26.912-6.112 53.44-19.392 78.528-13.472 26.112-31.616 48.96-53.856 68.544-23.264 20.384-48.736 38.144-76.288 53.248s-56.512 26.912-85.888 35.072c-18.976 5.504-29.568 6.528-35.296 6.528-9.376 0-17.76-1.44-24.672-4.48-6.72-2.848-12.032-6.944-16.512-12.448-5.088-6.336-8.96-12.032-11.424-16.32-2.656-4.48-5.312-9.984-8.16-16.512-12.448-27.328-33.248-72.416-62.432-134.432-17.536-37.536-30.176-65.056-38.144-82.4-9.376-16.928-12.864-32.224-11.008-47.52 1.824-14.496 10.816-29.984 26.912-45.472l61.6-61.408-5.92-9.984c-29.184-48.128-64.864-93.216-106.272-134.208-40.384-39.584-86.496-74.848-136.864-104.64l-10.208-5.92-61.408 60.992c-18.144 17.76-35.904 26.72-53.024 26.72zM244.384-21.269c-37.536 0-73.216 19.392-106.88 57.92-32.032 36.512-55.488 79.36-69.568 127.072l-0.608 4.288v9.792l9.184 5.088c50.176 21.632 95.872 41.824 137.088 60.992 3.264 1.44 29.792 13.248 79.968 35.904l14.688 8.16 11.616-9.6 94.848-93.216 20.608 9.984c65.056 32.032 127.488 76.896 184.8 133.6 57.92 57.312 103.84 118.72 136.064 181.952l9.6 20.192-99.136 97.504-1.216 11.424 3.072 6.72c13.664 30.4 26.304 57.536 37.728 81.6 35.072 75.872 55.68 120.96 62.208 135.040l4.096 8.96 14.688-0.608c48.96-13.856 92.8-36.928 130.336-68.544 39.584-33.248 59.36-68.544 58.944-104.864-0.416-32.64-9.6-73.856-27.328-122.176s-47.328-104.64-87.712-167.68c-40.384-62.816-88.32-122.176-142.784-175.84-54.656-53.856-115.040-101.184-179.296-140.96-63.84-39.584-121.152-68.32-170.112-85.664-50.4-17.952-90.976-26.912-124.832-27.136z" />
<glyph unicode="&#xe623;" glyph-name="Play" d="M419.712 221.035l268.64 196.224-268.64 198.208zM512 938.667c-282.272 0-512-229.728-512-512s229.728-512 512-512 512 229.728 512 512-229.728 512-512 512zM512-34.773c-254.592 0-461.44 206.848-461.44 461.44s207.040 461.44 461.44 461.44 461.44-207.040 461.44-461.44c0-254.592-206.848-461.44-461.44-461.44z" />
<glyph unicode="&#xe624;" glyph-name="PracticalPricing" d="M248.8 938.667v-580.896h-248.8v-332.768c0-81.216 76.416-110.688 127.84-110.688h778.272c59.616 0 117.888 58.272 117.888 117.888v906.464h-775.2zM148.736-56.885h-21.248c-27.744 0-99.392 14.72-99.392 82.24v304.32h220.352v-286.496c0.352-30.496-37.344-100.064-99.712-100.064zM995.552 32.555c0-44.224-45.248-89.44-89.44-89.44h-681.312l10.624 10.976c28.8 29.824 41.824 67.168 41.824 89.088v867.040h718.304v-877.664zM373.888 814.955h526.4v-29.824h-526.4v29.824zM373.888 254.283h526.4v-29.12h-526.4v29.12zM373.888 108.971h526.4v-28.448h-526.4v28.448zM899.264 669.291h-526.4v-299.168h526.4v299.168zM871.488 399.947h-469.152v239.552h469.152v-239.552z" />
<glyph unicode="&#xe625;" glyph-name="Protect" d="M570.816 242.603c-49.92 0-100.032 19.008-138.080 57.024l28.992 28.992c60.128-60.128 158.048-60.128 218.144 0l258.080 258.080c60.128 60.128 60.128 158.048 0 218.144l-48.256 48c-60.128 60.128-158.048 60.128-218.144 0l-182.048-182.048-28.992 28.992 182.048 182.048c76.032 76.032 199.872 76.032 276.128 0l48-48c76.032-76.032 76.032-199.872 0-275.904l-257.856-258.304c-38.016-37.792-88.16-57.024-138.080-57.024zM243.104-85.333c-52.032 0-101.248 20.192-138.080 57.28l-48 48c-76.032 76.032-76.032 199.872 0 275.904l258.080 258.080c76.032 76.032 200.096 76.032 276.128 0l48-48-28.992-28.992-48 48c-60.128 60.128-158.048 60.128-218.144 0l-258.304-257.856c-60.128-60.128-60.128-158.048 0-218.144l48-48c29.216-29.216 67.712-45.152 109.088-45.152 41.12 0 79.84 16.16 109.088 45.152l171.808 171.584 28.992-28.992-171.584-171.584c-37.088-36.832-86.016-57.28-138.080-57.28z" />
<glyph unicode="&#xe626;" glyph-name="RealEstate" d="M512 938.667l-203.872-204.736v81.952h-164.768v-245.856l-143.36-144.192 28.832-28.832 483.168 483.744 483.168-484 28.832 28.832-512 513.152zM267.008 692.811l-81.952-81.952v163.904h81.952v-81.952zM144.192 406.123v-491.456h286.688v286.688h163.040v-286.688h286.688v491.456l-368.64 368.64-367.808-368.64zM838.976-44.501h-204.16v286.688h-245.568v-286.688h-204.16v433.76l326.976 327.52 326.976-327.808v-433.472z" />
<glyph unicode="&#xe627;" glyph-name="RightArrow" horiz-adv-x="544" d="M44.768-85.109c-11.424 0-22.848 4.416-31.712 13.76-17.472 18.176-17.472 47.552 0 65.728l416.096 432.384-416.064 432.384c-17.472 18.176-17.472 47.552 0 65.728s45.92 18.176 63.392 0l479.264-498.144-479.488-498.368c-8.64-9.088-20.032-13.504-31.456-13.504z" />
<glyph unicode="&#xe628;" glyph-name="SearchTools" d="M582.432 400.779l13.312 13.312c8.384 8.384 8.384 22.080 0 30.848s-22.080 8.384-30.848 0l-19.424-19.424c-3.040 1.888-5.696 3.808-8.768 6.080-1.888 1.536-4.192 1.152-6.464 1.536 111.52 124.096 114.208 309.472 1.888 421.792-55.968 55.584-129.792 83.36-205.568 83.36-81.856 0-165.984-32.352-230.304-96.704-123.712-123.712-129.792-319.392-13.312-435.872 55.968-55.968 129.792-83.36 205.568-83.36 76.512 0 153.792 29.312 216.224 85.28 0.384-2.272 0.384-4.576 1.536-6.848 1.888-3.040 3.808-6.080 6.080-8.768l-19.424-19.424c-8.384-8.384-8.384-22.080 0-30.848s22.080-8.384 30.848 0l13.312 13.312c201.376-291.584 374.944-441.184 447.296-441.184 3.040 0 6.080 0.384 8.768 0.768 15.232 3.040 26.272 14.080 29.312 29.312 13.696 67.392-136.288 247.040-440.064 456.8zM288.928 366.155c-67.008 0-129.056 25.12-174.72 70.816-99.36 99.36-93.632 267.232 13.312 374.208 53.28 53.28 126.016 84.128 199.456 84.128 67.008 0 129.056-25.12 174.72-70.816 99.36-99.36 93.632-267.232-13.312-374.208-53.28-53.664-126.016-84.128-199.456-84.128zM610.976 327.691c277.504-200.224 364.672-336.128 369.248-369.248-33.12 4.192-169.024 91.744-369.248 369.248z" />
<glyph unicode="&#xe629;" glyph-name="Security" horiz-adv-x="800" d="M632.16 557.867v148.512c0 62.080-24.384 120.704-68.16 164.512s-102.432 68.16-164.512 68.16c-127.936 0-232.288-104.352-232.288-232.672v-148.512h-167.552v-642.816h796.64v642.816h-164.128zM198.016 706.379c0 111.584 90.24 202.208 201.824 202.208 54.080 0 105.088-20.96 143.2-59.392 38.080-38.080 59.040-88.736 59.040-142.816v-148.512h-47.968v146.624c0 40-17.12 78.080-46.464 106.624-29.312 28.192-68.16 43.424-109.28 43.424-85.696 0-154.976-67.392-154.976-150.048v-146.624h-45.696l0.384 148.512zM523.616 704.075v-146.624h-249.056v146.624c0 65.888 55.232 119.584 124.16 119.584 33.504 0 64.736-12.576 88.352-35.040 23.616-22.848 36.544-52.928 36.544-84.544zM766.944-54.485h-736.096v580.736h736.096v-580.736zM395.296 112.683c45.696 0 82.624 37.696 82.624 84.16v115.008c0 46.464-36.928 84.16-82.624 84.16s-82.24-37.696-82.24-84.16v-115.008c0-46.464 36.928-84.16 82.24-84.16zM342.72 311.467c0 29.312 23.616 53.312 52.928 53.312 28.928 0 52.928-24 52.928-53.312v-115.008c0-29.312-24-53.312-52.928-53.312s-52.928 24-52.928 53.312v115.008z" />
<glyph unicode="&#xe62a;" glyph-name="Share" horiz-adv-x="800" d="M570.848-85.333c-120.352 0-218.048 101.28-218.048 225.472 0 13.472 1.344 27.168 3.584 40.64l-50.080 39.52c-27.616-12.576-57.952-19.328-88.256-19.328-120.352 0-218.272 101.28-218.272 225.696s97.92 225.472 218.272 225.472c29.408 0 58.624-6.304 85.792-18.176l51.872 42.208c-2.016 12.352-3.136 24.704-3.136 36.832 0.224 124.64 98.144 225.696 218.272 225.696 120.352 0 218.272-101.28 218.272-225.472s-97.92-225.472-218.272-225.472c-29.408 0-58.624 6.304-85.792 18.176l-51.872-41.984c2.016-12.576 3.136-24.928 3.136-36.832 0-11.456-0.896-22.688-2.688-34.144l55.008-43.552c26.048 11.008 53.664 16.608 81.952 16.608 120.352 0 218.272-101.28 218.272-225.472 0.224-124.64-97.696-225.92-218.048-225.92zM312.352 291.915l110.272-87.36-5.376-19.776c-4.032-15.040-6.048-30.080-6.048-44.672 0-91.168 71.648-165.056 159.648-165.056s159.904 74.112 159.904 165.056c0 91.168-71.648 165.056-159.904 165.056-25.376 0-49.856-6.048-72.544-18.176l-16.384-8.768-113.408 89.6 4.48 19.072c3.136 13.696 4.928 26.72 4.928 39.52 0 13.248-1.792 27.392-5.376 41.536l-4.704 19.104 110.72 89.824 16.832-9.44c23.136-12.8 49.184-19.776 75.68-19.776 88.032 0 159.904 74.112 159.904 165.056s-71.648 165.056-159.904 165.056c-88.032 0-159.648-74.112-159.648-165.056 0-13.472 1.792-27.392 5.376-41.536l4.704-19.104-110.496-89.824-16.832 9.44c-23.584 13.024-48.96 19.776-75.68 19.776-88.032 0-159.904-74.112-159.904-165.056 0-91.168 71.648-165.056 159.904-165.056 26.944 0 53.888 7.2 77.472 20.672l16.384 9.888z" />
<glyph unicode="&#xe62b;" glyph-name="ShareAndRight" d="M1004.416 919.083c-12.96 12.96-30.112 19.584-47.232 19.584s-34.272-6.592-47.232-19.584l-196.768-196.288v37.44h-713.184v-845.344h846.816v712.192h-41.12l198.496 197.504c26.176 26.176 26.176 68.544 0.256 94.464zM802.272-40.789h-757.728v756.256h661.28l-349.728-348.512v-96.672h92.992l352.928 352.928v-664zM972.864 856.203l-541.856-541.376h-30.112v33.76l540.384 539.168c5.632 5.632 12.224 6.368 15.648 6.368s10.048-0.992 15.904-6.592c5.632-5.632 6.592-12.224 6.592-15.648s-0.992-10.048-6.592-15.648z" />
<glyph unicode="&#xe62c;" glyph-name="ShareFiles" d="M0 447.243l372.928-164.192 183.040-368.352 468.032 1024-1024-491.424zM97.952 448.939l784.992 376.64-499.136-502.592-285.824 125.92zM554.56 9.195l-141.632 284.992 503.712 507.136-362.080-792.128z" />
<glyph unicode="&#xe62d;" glyph-name="ShareFileSync" horiz-adv-x="2368" d="M1520.064 808.875l-688.672-679.424 55.904-55.904 688.672 679.424zM515.008-6.805c-240.192 0-435.552 194.464-435.552 433.248s195.392 433.248 435.552 433.248c116.384 0 222.176-45.728 300.224-120.096v0.448l4.16-3.232 154.272-155.648h-141.792v-75.744h278.048v278.528h-75.744v-145.024l-158.88 153.344-0.448-0.448c-92.832 90.528-219.872 146.432-359.808 146.432-284.064 0-515.008-229.568-515.008-512.224s230.944-512.224 515.008-512.224c146.432 0 278.528 61.44 372.288 159.36l-55.904 55.904c-79.456-83.136-191.68-135.808-316.384-135.808zM1861.856 938.667c-131.168 0-250.816-49.408-341.792-129.792l55.872-55.424c76.672 66.048 176.448 106.688 285.44 106.688 240.192 0 435.552-194.464 435.552-433.248s-195.392-433.248-435.552-433.248c-115.936 0-221.248 45.728-299.296 119.168v-0.448l-262.336 260.032-56.352-55.424 262.816-260.032 0.448 0.448c92.384-87.744 217.536-141.792 354.72-141.792 284.064 0 515.008 229.568 515.008 512.224 0.448 280.832-230.496 510.848-514.528 510.848z" />
<glyph unicode="&#xe62e;" glyph-name="ShareLargeFiles" horiz-adv-x="1120" d="M1032.896 793.355h-609.664v47.968c0 53.792-42.496 97.344-94.592 97.344h-234.752c-51.744 0-93.888-43.52-93.888-97.344v-829.344c0-53.792 42.144-97.312 93.888-97.312h939.008c51.744 0 93.888 43.52 93.888 97.312v683.008c0 53.792-42.144 98.368-93.888 98.368zM1079.872 11.979c0-27.072-21.248-49.344-46.944-49.344h-939.008c-25.696 0-46.944 22.624-46.944 49.344v586.72h1032.576v-586.72zM1079.872 646.699h-1032.896v194.656c0 27.072 21.248 48.672 46.944 48.672h234.752c25.696 0 46.944-21.92 46.944-48.672v-98.016h656.96c25.696 0 46.944-21.248 46.944-48.32l0.352-48.32z" />
<glyph unicode="&#xe62f;" glyph-name="ShareMobile1" horiz-adv-x="800" d="M751.872 460.907l-4 5.984 5.248 4.736c3.008 2.752 5.76 5.504 8.48 8.48 27.488 29.472 41.984 67.712 40.736 107.456v1.76l-0.256 1.984c-15.008 217.408-217.152 347.328-403.552 347.328-195.904 0-398.56-139.68-398.56-373.312 0-62.208 16.992-120.448 50.72-173.152l4-5.984-5.248-4.736c-3.008-2.752-5.984-5.504-8.736-8.48-27.488-29.472-41.984-67.712-40.48-107.456v-1.504l0.256-1.76c15.008-217.408 217.152-347.328 403.552-347.328 195.904 0 398.56 139.68 398.56 373.312 0 61.728-17.248 119.936-50.72 172.672zM403.808 16.875c-139.68 0-290.624 94.208-301.6 252.128-0.512 12.48 4.256 24.48 12.992 33.984 9.76 10.24 22.976 16.256 37.728 16.736 28.992 0 54.208-22.496 54.208-48.224 8.256-89.696 95.968-157.408 203.904-157.408 101.696 0 184.416 76.448 184.416 170.176 0 32.992-9.984 60.48-31.232 86.464-28.48 34.976-202.4 147.68-204.16 148.928l-0.992 0.512c-26.24 16.256-31.968 39.232-31.968 55.968 0 35.744 29.472 64.96 65.984 64.96 36.224 0 65.984-29.248 65.984-64.96v-1.248l0.992-0.992c55.232-35.232 152.928-100.96 187.392-143.168 35.488-43.488 52.736-90.208 52.736-143.168 0.256-169.152-150.688-270.624-296.352-270.624zM687.168 550.091c-9.76-10.24-22.976-16.256-37.472-16.736-28.992 0-54.464 22.496-54.464 48.224-8.256 89.696-95.968 157.408-203.904 157.408-101.696 0-184.416-76.448-184.416-170.176 0-32.992 9.984-60.48 31.232-86.464 28.224-34.72 202.4-147.68 204.16-148.928l0.992-0.512c26.24-16.256 31.968-39.232 31.968-55.968 0-35.744-29.472-64.96-65.984-64.96s-65.984 29.248-65.984 64.96v1.248l-0.992 0.992c-55.232 35.232-152.928 100.96-187.392 143.168-35.488 43.488-52.96 90.208-52.96 143.168 0 169.664 150.688 270.88 296.352 270.88 139.68 0 290.592-94.208 301.6-252.128 0.736-12.48-3.744-24.736-12.736-34.24z" />
<glyph unicode="&#xe630;" glyph-name="ShareMobile2" horiz-adv-x="736" d="M747.392 253.099c0-211.968-188.256-338.432-370.272-338.432-174.528 0-363.072 117.696-376.832 315.008-0.608 15.616 5.312 30.912 16.224 42.464 12.192 12.8 28.736 20.288 47.136 20.928 36.224 0 67.744-28.096 67.744-60.256 10.304-112.064 119.872-196.672 254.752-196.672 127.072 0 230.4 95.52 230.4 212.608 0 41.216-12.48 75.552-39.040 108.032-35.584 43.712-252.864 184.512-255.072 186.080l-1.248 0.64c-32.768 20.288-39.968 49.024-39.968 69.92 0 44.64 36.832 81.184 82.432 81.184 45.28 0 82.432-36.512 82.432-81.184v-1.568l1.248-1.248c68.992-44.032 191.072-126.112 234.144-178.88 44.032-54.016 65.888-112.704 65.888-178.592zM300.32 242.795l1.248-1.248v-1.568c0-44.64 36.832-81.184 82.432-81.184s82.432 36.512 82.432 81.184c0 20.608-6.88 49.632-39.968 69.92l-1.248 0.64c-2.176 1.248-219.776 142.688-255.072 186.080-26.528 32.48-39.040 66.816-39.040 108.032 0 117.376 103.328 212.608 230.4 212.608 134.88 0 244.448-84.288 254.752-196.672 0-32.16 31.84-60.256 68.064-60.256 18.112 0.64 34.656 7.808 46.816 20.928 10.912 11.872 16.864 26.848 16.224 42.464-13.728 196.992-202.624 315.008-376.832 315.008-182.016 0-370.272-126.752-370.272-338.432 0-65.888 21.536-124.576 66.176-178.88 42.784-52.768 164.832-134.56 233.824-178.592z" />
<glyph unicode="&#xe631;" glyph-name="SolidCheck" d="M389.504-85.589c-33.12 0-64.8 14.4-86.88 39.84l-273.568 315.104c-42.464 48.96-37.92 123.584 9.824 166.784 48 43.2 121.184 38.624 163.68-10.080l174.24-200.64 434.592 660.672c35.744 54.24 107.744 68.64 160.8 32.384 53.024-36.48 67.424-109.92 31.68-163.904l-518.368-787.872c-19.904-30.464-52.8-49.664-88.544-52.064-2.176 0-4.8-0.224-7.424-0.224z" />
<glyph unicode="&#xe632;" glyph-name="SolidEnvelope" horiz-adv-x="1472" d="M48.64 842.635c39.84-23.232 592.192-343.936 612.896-355.552 20.384-11.936 47.072-17.568 74.048-17.568 26.688 0 53.664 5.952 74.048 17.568s572.736 332.352 612.896 355.552c39.84 23.232 77.504 95.712 4.384 95.712h-1382.688c-73.12 0.32-35.776-72.48 4.384-95.712zM1438.88 666.283c-45.184-25.728-601.6-340.192-629.536-355.872-27.616-15.68-47.072-17.568-74.048-17.568-26.688 0-46.144 2.208-74.048 17.568-27.616 15.68-584.352 330.144-629.536 355.552-32 17.888-31.712-3.136-31.712-19.456s0-647.744 0-647.744c0-37.024 45.504-84.736 80.96-84.736h1308.32c35.456 0 80.96 47.712 80.96 84.736 0 0 0 631.424 0 647.712 0.32 16.64 0.64 37.664-31.392 19.776z" />
<glyph unicode="&#xe633;" glyph-name="SpeechBubble" d="M798.848 938.667h-573.696c-124.192 0-225.152-97.088-225.152-216.448v-301.024c0-119.36 100.96-214.624 225.152-214.624h226.784l341.664-291.904v289.888c123.616 0.8 230.4 97.696 230.4 216.64v301.024c0 119.36-100.928 216.448-225.152 216.448zM726.016 256.139v-176.608l-230.624 207.552h-270.272c-77.088 0-136.352 60.096-136.352 134.112v301.024c0 74.048 59.264 136.128 136.352 136.128h573.504c77.088 0 140.608-62.112 140.608-136.128v-301.024c0-74.048-63.52-134.112-140.608-134.112h-72.832v-30.944z" />
<glyph unicode="&#xe634;" glyph-name="Support" horiz-adv-x="1152" d="M1072.352 708.651h-222.4v160.32c0 38.464-30.464 69.696-66.656 69.696h-410.528c-36.192 0-65.504-31.232-65.504-69.696v-160.32h-241.824c-36.192 0-65.504-31.232-65.504-69.696v-655.008c0-38.464 29.312-69.696 65.504-69.696h1006.496c36.192 0 65.504 31.232 65.504 69.696v655.008c0.384 38.464-28.928 69.696-65.12 69.696zM350.336 868.971c0 12.96 10.272 23.232 22.464 23.232h410.528c12.192 0 23.232-10.272 23.232-23.232v-160.32h-32v98.624c0 25.504-19.808 46.464-43.808 46.464h-303.52c-24 0-43.040-20.96-43.040-46.464v-98.624h-34.272v160.32zM730.4 708.651h-302.752v97.856h302.752v-97.856zM1092.544-16.021c0-12.96-12.96-23.232-25.12-23.232h-996.96c-12.192 0-25.12 10.272-25.12 23.232v655.008c0 12.96 12.96 23.232 25.12 23.232h996.96c12.192 0 25.12-10.272 25.12-23.232v-655.008zM618.816 540.331h-98.624v-175.168h-161.856v-104.736h164.128v-174.016h97.504v174.016h167.552v104.736h-168.704z" />
<glyph unicode="&#xe635;" glyph-name="Sync" d="M942.048 156.811h-864.96l172.48 174.464-28.832 29.408-220.736-223.008 220.736-223.008 28.832 29.408-169.632 171.328h902.624v372.64h-40.544zM81.952 695.083h863.52l-171.040-173.056 28.832-29.408 220.736 223.008-220.736 223.008-28.832-29.408 171.040-172.768h-905.216v-372.64h41.696z" />
<glyph unicode="&#xe636;" glyph-name="Twitter1" horiz-adv-x="1472" d="M1318.24 483.659c83.296 6.816 139.808 44.832 162.208 96.448-30.208-18.528-123.744-38.976-174.88-19.488-2.432 12.192-5.344 23.872-8.288 34.112-39.456 144.192-173.92 261.12-315.2 246.976 11.68 4.384 22.88 8.768 34.592 12.672 15.584 5.344 106.688 20.448 92.544 52.608-12.192 28.256-123.744-21.44-144.672-27.776 27.776 10.24 73.568 28.256 78.432 59.936-42.368-5.856-83.776-25.824-115.936-55.040 11.68 12.672 20.448 27.776 22.4 44.32-113.024-72.096-179.264-217.76-232.864-359.52-41.888 40.928-78.912 72.576-112.544 90.624-93.536 50.176-205.568 102.784-381.44 168.064-5.344-57.984 28.736-135.424 127.136-186.592-21.44 2.912-59.936-3.424-91.584-11.2 12.672-66.752 54.080-121.792 166.592-148.096-51.136-3.424-77.952-15.104-101.824-39.936 23.392-46.272 80.384-100.832 182.688-89.632-113.984-49.216-46.272-140.288 46.272-126.656-158.336-163.68-408.224-151.52-551.456-14.624 374.144-510.048 1188.16-301.536 1309.472 189.504 90.624-0.48 144.192 31.68 177.312 67.232-52.608-10.24-128.608-0.96-169.056 16.064z" />
<glyph unicode="&#xe637;" glyph-name="Twitter2" d="M511.904-85.109c-282.4 0-511.904 229.472-511.904 511.904s229.472 511.904 511.904 511.904 511.904-229.472 511.904-511.904-229.472-511.904-511.904-511.904zM511.904 910.635c-266.72 0-483.872-217.152-483.872-483.872s217.152-483.872 483.872-483.872 483.872 217.152 483.872 483.872-217.152 483.872-483.872 483.872z" />
<glyph unicode="&#xe638;" glyph-name="User" d="M512 938.667c-282.88 0-512-229.12-512-512s229.12-512 512-512 512 229.12 512 512-229.12 512-512 512zM512 895.947c258.816 0 469.28-210.464 469.28-469.28 0-113.76-40.736-218.272-108.544-299.744-46.752 19.456-157.28 57.792-225.504 78.048-5.824 1.792-6.816 2.016-6.816 26.272 0 20.064 8.224 40.32 16.256 57.376 8.64 18.656 19.072 49.76 22.656 77.856 10.432 12.032 24.48 35.712 33.504 81.056 8.032 39.936 4.224 54.368-0.992 68-0.608 1.408-1.216 2.816-1.6 4.224-2.016 9.44 0.8 57.984 7.616 95.712 4.8 25.888-1.216 80.864-36.704 126.4-22.464 28.704-65.6 64-144.256 69.024h-43.136c-77.248-4.8-120.384-40.128-142.848-69.024-35.712-45.536-41.536-100.512-36.704-126.4 6.816-37.728 9.632-86.272 7.616-95.488-0.416-1.6-0.992-3.008-1.6-4.416-5.216-13.632-9.024-28.096-0.992-68 9.024-45.344 23.072-69.024 33.504-81.056 3.616-28.096 14.048-59.2 22.656-77.856 6.432-13.632 9.44-32.096 9.44-58.176 0-24.288-0.8-24.672-6.432-26.272-70.624-20.864-183.36-61.6-225.088-79.84-69.024 81.856-110.56 187.2-110.56 302.336 0 258.816 210.464 469.28 469.28 469.28zM184.384 91.019c47.936 19.648 143.84 53.76 206.848 72.416 36.512 11.648 36.512 42.336 36.512 67.008 0 20.448-1.408 50.752-13.44 76.448-8.224 17.44-17.664 47.552-19.648 71.008-0.416 5.408-3.008 10.624-7.232 14.24-6.016 5.216-18.272 24.672-26.080 63.808-6.208 30.912-3.616 37.728-0.992 44.352 0.992 2.816 2.016 5.408 3.008 8.64 5.024 18.656-0.608 80.256-6.816 114.368-2.624 14.848 0.8 56.992 28.48 92.48 24.864 31.904 62.592 49.568 110.56 52.576h40.512c49.344-3.2 87.072-20.864 111.936-52.576 27.68-35.52 31.104-77.632 28.48-92.48-6.208-34.112-11.84-95.712-6.816-114.368 0.8-3.2 1.792-5.824 3.008-8.64 2.592-6.624 5.216-13.248-0.992-44.352-7.808-39.136-20.064-58.368-26.272-63.808-4.224-3.616-6.624-8.64-7.232-14.24-2.016-23.488-11.424-53.568-19.648-71.008-9.44-20.064-20.256-46.944-20.256-75.424 0-24.672 0-55.584 36.928-67.2 60.192-17.856 156.48-50.752 207.232-70.816-84.864-84.064-201.44-136.032-330.016-136.032-127.808 0-243.36 50.944-328.032 133.632z" />
<glyph unicode="&#xe639;" glyph-name="Warning" horiz-adv-x="1088" d="M619.104 332.171c0-21.312-15.744-38.048-35.872-38.048h-71.712c-19.392 0-35.872 16.704-35.872 38.048v227.776c0 21.312 16.48 39.008 35.872 39.008h71.712c20.096 0 35.872-17.92 35.872-39.008v-227.776zM619.104 104.651c0-21.312-15.744-38.048-35.872-38.048h-71.712c-19.392 0-35.872 16.704-35.872 38.048v75.84c0 21.312 16.48 38.528 35.872 38.528h71.712c20.096 0 35.872-17.216 35.872-38.528v-75.84zM1086.272-19.189l-503.040 930.464c-20.096 36.352-51.84 36.352-71.712 0l-503.040-930.464c-20.096-36.352-3.648-66.144 35.872-66.144h1005.824c39.744 0 56.224 29.792 36.096 66.144z" />
<glyph unicode="&#xe63a;" glyph-name="WorkAnywhere" d="M511.872 938.667c-282.816-0.8-511.872-230.368-511.872-511.872 0-281.76 229.056-511.328 510.816-511.872h1.312c282.304 0 511.872 229.568 511.872 511.872s-229.856 511.872-512.128 511.872zM169.216 763.659c62.72 64.064 142.080 109.12 229.056 130.208l16.864 4.224-12.128-12.64c-39.264-40.864-72.736-103.072-96.48-180.288l-1.568-4.736-4.736 1.568c-44.8 13.696-88.288 31.616-129.696 53.76l-6.048 3.168 4.736 4.736zM31.616 447.627c4.48 104.64 42.176 202.688 108.864 283.872l2.624 3.168 3.68-2.112c46.112-25.568 94.88-46.112 144.96-61.152l4.736-1.312-1.056-4.736c-17.12-68-26.624-141.28-28.192-217.984v-4.992h-235.648v5.28zM146.816 120.779l-3.68-2.112-2.624 3.168c-66.688 81.184-104.384 179.232-108.864 283.872l-0.256 5.28h235.648v-5.024c1.312-76.96 10.816-150.24 28.192-217.984l1.056-4.736-4.736-1.312c-49.824-15.040-98.592-35.584-144.704-61.152zM398.272-40.245c-86.976 21.088-166.048 66.144-229.056 130.208l-4.736 4.736 6.048 3.168c41.376 22.144 85.12 40.32 129.696 53.76l4.736 1.568 1.568-4.736c24-76.96 57.472-139.424 96.736-180.288l12.128-12.64-17.12 4.224zM496.32-52.661l-6.336 1.568c-59.84 15.552-117.024 93.312-153.152 207.424l-1.568 5.28 5.28 1.312c49.024 11.872 99.648 18.72 150.496 20.032l5.28 0.256v-235.904zM496.32 214.347l-4.992-0.256c-54.048-1.568-107.808-8.704-159.744-21.344l-4.992-1.312-1.312 5.024c-16.352 64.32-25.312 134.688-26.624 209.536v5.024h197.696v-196.64zM496.32 442.347h-197.696v4.992c1.312 74.592 10.272 145.216 26.88 209.536l1.312 4.992 4.992-1.056c51.936-12.64 105.696-19.776 159.744-21.344l4.992-0.256-0.256-196.896zM496.32 670.603l-5.28 0.256c-50.88 1.568-101.472 8.16-150.496 20.032l-5.28 1.312 1.568 5.28c36.096 114.4 93.312 191.872 152.864 207.424l6.336 1.568 0.256-235.904zM876.928 733.067l3.68 2.112 2.624-3.168c66.688-80.928 104.384-179.232 108.864-284.128l0.256-5.28h-236.96v4.992c-1.568 76.96-10.816 150.24-27.936 217.984l-1.056 4.736 4.736 1.312c50.080 15.040 99.36 35.584 145.76 61.408zM623.904 894.123c87.52-20.832 167.36-66.144 230.624-130.464l4.736-4.736-6.048-3.168c-41.632-22.144-85.664-40.32-130.72-54.048l-4.736-1.312-1.568 4.736c-24 77.504-57.728 139.968-96.992 180.8l-12.128 12.64 16.864-4.48zM527.424 905.707l6.592-1.856c59.296-16.352 115.968-93.824 151.808-207.168l1.568-5.28-5.28-1.312c-48.512-11.872-98.848-18.464-149.184-19.776l-5.28-0.256-0.256 235.648zM527.424 639.499l5.024 0.256c53.504 1.312 107.008 8.448 158.4 21.088l5.024 1.056 1.312-4.736c16.352-64.064 25.312-134.688 26.624-209.536v-4.992h-196.352v196.896zM527.424 411.243h196.352v-5.024c-1.312-74.592-10.272-144.96-26.624-209.024l-1.312-5.024-5.024 1.056c-51.648 12.64-104.896 19.52-158.688 21.088l-5.024 0.256v196.64zM534.016-50.549l-6.592-1.856v235.648l5.28-0.256c50.336-1.568 100.672-8.16 149.44-19.776l5.28-1.312-1.568-5.28c-35.84-113.344-92.768-190.816-151.808-207.168zM854.528 89.931c-63.52-64.576-143.392-109.92-230.88-130.72l-16.864-3.968 12.128 12.64c39.552 40.864 73.024 103.584 96.992 181.088l1.568 4.736 4.736-1.568c45.344-13.696 89.344-31.904 131.008-54.304l6.048-3.168-4.736-4.736zM992.096 405.963c-4.48-104.64-42.176-202.688-108.608-283.872l-2.624-3.168-3.68 2.112c-46.656 25.824-95.936 46.4-146.272 61.664l-4.736 1.312 1.056 4.736c17.12 67.744 26.624 141.024 27.936 217.728v5.024h236.96v-5.536z" />
<glyph unicode="&#xe63b;" glyph-name="X" d="M1024 832.075l-415.872-405.408 416.128-405.408-106.848-106.592-405.408 410.784-405.408-410.784-106.592 106.592 416.128 405.408-416.128 405.408 106.592 106.592 405.408-410.784 405.408 410.784 106.592-106.592z" />
<glyph unicode="&#xe63c;" glyph-name="YouTube4" horiz-adv-x="1856" d="M628.992 761.515h-348.16v-82.944h111.872v-581.376h106.752v581.376h129.536zM781.056 205.995c-8.96-23.808-49.92-48.896-64.768-2.816-2.816 8.448-0.512 386.816-0.512 386.816h-107.776c0 0 0.512-388.608 1.792-404.224 2.816-27.904 0.512-60.672 27.136-79.36 48.384-35.072 142.080 5.12 164.608 55.552v-65.536h86.784v494.080h-107.264c0-0.512 2.304-376.832 0-384.512zM1062.912 571.307v190.72h-110.336l-0.512-665.6h88.576l8.448 48.384c113.664-103.936 184.576-33.024 184.576 91.904v257.28c0 98.304-70.912 156.928-170.752 77.312zM1153.024 217.515c0-21.504-21.504-38.656-47.104-38.656s-47.104 17.152-47.104 38.656v289.536c0 21.504 21.504 38.656 47.104 38.656 26.624 0 47.104-17.152 47.104-38.656v-289.536zM1572.096 269.739l-81.664-0.512c0-3.328 0-6.4 0-10.24v-45.312c0-23.808-19.968-43.776-43.776-43.776h-16.384c-24.576 0-43.264 19.968-43.264 43.776v121.088h184.576v67.072c0 50.688-1.28 102.144-5.632 131.072-13.568 92.16-142.592 107.264-207.872 60.16-20.48-14.848-36.352-34.048-45.312-61.44-8.96-26.624-13.568-62.464-13.568-109.056v-153.856c-0.256-253.952 310.016-218.624 272.896 1.024zM1388.8 477.611c0 26.624 21.504 48.128 48.384 48.128h6.4c26.624 0 48.384-21.504 48.384-48.128l-1.792-61.44h-102.656l1.28 61.44z" />
<glyph unicode="&#xe63d;" glyph-name="YouTube2" d="M511.904-85.109c-282.4 0-511.904 229.472-511.904 511.904s229.472 511.904 511.904 511.904 511.904-229.472 511.904-511.904-229.472-511.904-511.904-511.904zM511.904 910.635c-266.72 0-483.872-217.152-483.872-483.872s217.152-483.872 483.872-483.872 483.872 217.152 483.872 483.872-217.152 483.872-483.872 483.872z" />
<glyph unicode="&#xe63e;" glyph-name="YouTube3" horiz-adv-x="864" d="M541.984 568.011c2.848-7.456 7.808-13.472 14.176-18.080s14.528-6.752 24.128-6.752c8.512 0 16.32 2.112 22.688 7.104 6.752 4.608 11.008 11.712 16.672 21.28v-26.24h62.432v281.984h-49.664v-216.704c0-12.064-9.92-21.632-21.632-21.632-12.064 0-21.984 9.568-21.984 21.632v216.704h-53.92v-187.648c0-24.128 0.352-40.064 1.056-48.608 1.056-7.808 2.848-15.264 6.016-23.040zM341.568 726.923c0 26.944 2.112 48.224 6.752 63.136s12.768 27.296 24.48 36.544c11.712 9.216 26.592 13.824 44.704 13.824 15.264 0 28.384-2.848 39.36-8.864 11.008-5.664 19.52-13.472 25.184-23.040 6.016-9.568 9.92-19.168 12.416-29.44 2.112-9.92 3.2-25.184 3.2-46.112v-70.944c0-26.24-1.056-45.408-3.2-57.472-2.112-12.416-6.4-23.776-13.12-34.4s-14.912-18.432-25.536-23.424c-10.656-4.96-22.336-7.456-35.84-7.456-14.912 0-27.68 2.112-38.304 6.4s-18.784 10.656-24.48 19.52c-5.664 8.864-9.92 19.168-12.416 31.552-2.496 12.064-3.552 30.848-3.552 55.328l0.352 74.848zM393.344 615.179c0-15.968 11.712-29.088 26.24-29.088s26.24 12.768 26.24 29.088v149.696c0 15.968-11.712 29.088-26.24 29.088-14.176 0-26.24-13.12-26.24-29.088v-149.696zM209.984 539.275h63.488v216l73.056 183.392h-68.448l-39.008-135.488-39.712 135.488h-67.392l77.664-183.392z" />
<glyph unicode="&#xe63f;" glyph-name="YouTube1" horiz-adv-x="1568" d="M1567.008 704.683v-549.504c0-131.904-121.184-240.96-261.472-240.96h-1044.96c-140.288 0-260.064 109.056-260.064 240.96v549.504c0 131.904 120.704 233.984 260.064 233.984h1044.96c140.768 0 261.472-101.6 261.472-233.984z" />
<glyph unicode="&#xe640;" glyph-name="VDR-Sync-tabletcopy_1" horiz-adv-x="1408" d="M105.216 611.755c-4.352 0-7.68-3.584-7.68-7.936s3.584-7.68 7.68-7.68c1.28 0 2.304 0.256 3.328 0.768 2.816 1.28 4.608 3.84 4.608 7.168-0.256 4.352-3.584 7.68-7.936 7.68zM106.24 341.675c-4.352 0-7.68-3.584-7.68-7.68v-0.256c0-4.352 3.328-7.68 7.68-7.68s7.68 3.584 7.68 7.68v0.256c0 4.096-3.328 7.68-7.68 7.68zM106.24 375.467c-4.352 0-7.68-3.584-7.68-7.68v-0.256c0-4.352 3.328-7.68 7.68-7.68s7.68 3.584 7.68 7.68v0.256c0 4.096-3.328 7.68-7.68 7.68zM106.24 409.259c-4.352 0-7.68-3.584-7.68-7.68v-0.256c0-4.352 3.328-7.68 7.68-7.68s7.68 3.584 7.68 7.68v0.256c0 4.096-3.328 7.68-7.68 7.68zM106.24 443.051c-4.352 0-7.68-3.584-7.68-7.68v-0.256c0-4.352 3.328-7.68 7.68-7.68s7.68 3.584 7.68 7.68v0.256c0 4.096-3.328 7.68-7.68 7.68zM106.24 476.843c-4.352 0-7.68-3.584-7.68-7.68v-0.256c0-4.352 3.328-7.68 7.68-7.68s7.68 3.584 7.68 7.68v0.256c0 4.096-3.328 7.68-7.68 7.68zM106.24 510.635c-4.352 0-7.68-3.584-7.68-7.68v-0.256c0-4.352 3.328-7.68 7.68-7.68s7.68 3.584 7.68 7.68v0.256c0 4.096-3.328 7.68-7.68 7.68zM106.24 544.427c-4.352 0-7.68-3.584-7.68-7.68v-0.256c0-4.352 3.328-7.68 7.68-7.68s7.68 3.584 7.68 7.68v0.256c0 4.096-3.328 7.68-7.68 7.68zM106.24 578.219c-4.352 0-7.68-3.584-7.68-7.68v-0.256c0-4.352 3.328-7.68 7.68-7.68s7.68 3.584 7.68 7.68v0.256c0 4.096-3.328 7.68-7.68 7.68zM1227.52 239.787h-0.256c-4.352 0-7.68-3.328-7.68-7.68s3.584-7.68 7.68-7.68h0.256c4.352 0 7.68 3.328 7.68 7.68s-3.328 7.68-7.68 7.68zM1192.448 239.787h-0.256c-4.352 0-7.68-3.328-7.68-7.68s3.584-7.68 7.68-7.68h0.256c4.352 0 7.68 3.328 7.68 7.68s-3.328 7.68-7.68 7.68zM1157.376 239.787h-0.256c-4.352 0-7.68-3.328-7.68-7.68s3.584-7.68 7.68-7.68h0.256c4.352 0 7.68 3.328 7.68 7.68s-3.328 7.68-7.68 7.68zM1122.304 239.787h-0.256c-4.352 0-7.68-3.328-7.68-7.68s3.584-7.68 7.68-7.68h0.256c4.352 0 7.68 3.328 7.68 7.68s-3.328 7.68-7.68 7.68zM1087.232 239.787h-0.256c-4.352 0-7.68-3.328-7.68-7.68s3.584-7.68 7.68-7.68h0.256c4.352 0 7.68 3.328 7.68 7.68s-3.328 7.68-7.68 7.68zM771.584 239.787h-0.256c-4.352 0-7.68-3.328-7.68-7.68s3.584-7.68 7.68-7.68h0.256c4.352 0 7.68 3.328 7.68 7.68s-3.328 7.68-7.68 7.68zM736.512 239.787h-0.256c-4.352 0-7.68-3.328-7.68-7.68s3.584-7.68 7.68-7.68h0.256c4.352 0 7.68 3.328 7.68 7.68s-3.328 7.68-7.68 7.68zM701.44 239.787h-0.256c-4.352 0-7.68-3.328-7.68-7.68s3.584-7.68 7.68-7.68h0.256c4.352 0 7.68 3.328 7.68 7.68s-3.328 7.68-7.68 7.68zM666.368 239.787h-0.256c-4.352 0-7.68-3.328-7.68-7.68s3.584-7.68 7.68-7.68h0.256c4.352 0 7.68 3.328 7.68 7.68s-3.328 7.68-7.68 7.68zM631.296 239.787h-0.256c-4.352 0-7.68-3.328-7.68-7.68s3.584-7.68 7.68-7.68h0.256c4.352 0 7.68 3.328 7.68 7.68s-3.328 7.68-7.68 7.68zM596.224 239.787h-0.256c-4.352 0-7.68-3.328-7.68-7.68s3.584-7.68 7.68-7.68h0.256c4.352 0 7.68 3.328 7.68 7.68s-3.328 7.68-7.68 7.68zM561.152 239.787h-0.256c-4.352 0-7.68-3.328-7.68-7.68s3.584-7.68 7.68-7.68h0.256c4.352 0 7.68 3.328 7.68 7.68 0.256 4.352-3.328 7.68-7.68 7.68zM455.936 239.787h-0.256c-4.352 0-7.68-3.328-7.68-7.68s3.584-7.68 7.68-7.68h0.256c4.352 0 7.68 3.328 7.68 7.68 0.256 4.352-3.328 7.68-7.68 7.68zM420.864 239.787h-0.256c-4.352 0-7.68-3.328-7.68-7.68s3.584-7.68 7.68-7.68h0.256c4.352 0 7.68 3.328 7.68 7.68 0.256 4.352-3.328 7.68-7.68 7.68zM385.792 239.787h-0.256c-4.352 0-7.68-3.328-7.68-7.68s3.584-7.68 7.68-7.68h0.256c4.352 0 7.68 3.328 7.68 7.68 0.256 4.352-3.328 7.68-7.68 7.68zM350.72 239.787h-0.256c-4.352 0-7.68-3.328-7.68-7.68s3.584-7.68 7.68-7.68h0.256c4.352 0 7.68 3.328 7.68 7.68 0.256 4.352-3.328 7.68-7.68 7.68zM315.648 239.787h-0.256c-4.352 0-7.68-3.328-7.68-7.68s3.584-7.68 7.68-7.68h0.256c4.352 0 7.68 3.328 7.68 7.68 0.256 4.352-3.328 7.68-7.68 7.68zM280.576 239.787h-0.256c-4.352 0-7.68-3.328-7.68-7.68s3.584-7.68 7.68-7.68h0.256c4.352 0 7.68 3.328 7.68 7.68 0.256 4.352-3.328 7.68-7.68 7.68zM1332.48 341.675c-4.352 0-7.68-3.584-7.68-7.68v-0.256c0-4.352 3.328-7.68 7.68-7.68s7.68 3.584 7.68 7.68v0.256c0 4.096-3.328 7.68-7.68 7.68zM1332.48 375.467c-4.352 0-7.68-3.584-7.68-7.68v-0.256c0-4.352 3.328-7.68 7.68-7.68s7.68 3.584 7.68 7.68v0.256c0 4.096-3.328 7.68-7.68 7.68zM1332.48 409.259c-4.352 0-7.68-3.584-7.68-7.68v-0.256c0-4.352 3.328-7.68 7.68-7.68s7.68 3.584 7.68 7.68v0.256c0 4.096-3.328 7.68-7.68 7.68zM1332.48 443.051c-4.352 0-7.68-3.584-7.68-7.68v-0.256c0-4.352 3.328-7.68 7.68-7.68s7.68 3.584 7.68 7.68v0.256c0 4.096-3.328 7.68-7.68 7.68zM1332.48 476.843c-4.352 0-7.68-3.584-7.68-7.68v-0.256c0-4.352 3.328-7.68 7.68-7.68s7.68 3.584 7.68 7.68v0.256c0 4.096-3.328 7.68-7.68 7.68zM1332.48 510.635c-4.352 0-7.68-3.584-7.68-7.68v-0.256c0-4.352 3.328-7.68 7.68-7.68s7.68 3.584 7.68 7.68v0.256c0 4.096-3.328 7.68-7.68 7.68zM1332.48 544.427c-4.352 0-7.68-3.584-7.68-7.68v-0.256c0-4.352 3.328-7.68 7.68-7.68s7.68 3.584 7.68 7.68v0.256c0 4.096-3.328 7.68-7.68 7.68zM1332.48 578.219c-4.352 0-7.68-3.584-7.68-7.68v-0.256c0-4.352 3.328-7.68 7.68-7.68s7.68 3.584 7.68 7.68v0.256c0 4.096-3.328 7.68-7.68 7.68zM1332.48 596.395c4.352 0 7.68 3.584 7.68 7.936s-3.584 7.68-7.936 7.68c-4.352 0-7.68-3.584-7.68-7.68 0-1.28 0.256-2.304 0.768-3.328 1.28-2.816 4.096-4.608 7.168-4.608zM1297.664 610.987h-0.256c-4.352 0-7.68-3.328-7.68-7.68s3.584-7.68 7.68-7.68h0.256c4.352 0 7.68 3.328 7.68 7.68s-3.328 7.68-7.68 7.68zM1262.592 610.987h-0.256c-4.352 0-7.68-3.328-7.68-7.68s3.584-7.68 7.68-7.68h0.256c4.352 0 7.68 3.328 7.68 7.68s-3.328 7.68-7.68 7.68zM1227.52 610.987h-0.256c-4.352 0-7.68-3.328-7.68-7.68s3.584-7.68 7.68-7.68h0.256c4.352 0 7.68 3.328 7.68 7.68s-3.328 7.68-7.68 7.68zM1192.448 610.987h-0.256c-4.352 0-7.68-3.328-7.68-7.68s3.584-7.68 7.68-7.68h0.256c4.352 0 7.68 3.328 7.68 7.68s-3.328 7.68-7.68 7.68zM1157.376 610.987h-0.256c-4.352 0-7.68-3.328-7.68-7.68s3.584-7.68 7.68-7.68h0.256c4.352 0 7.68 3.328 7.68 7.68s-3.328 7.68-7.68 7.68zM1122.304 610.987h-0.256c-4.352 0-7.68-3.328-7.68-7.68s3.584-7.68 7.68-7.68h0.256c4.352 0 7.68 3.328 7.68 7.68s-3.328 7.68-7.68 7.68zM1052.16 610.987h-0.256c-4.352 0-7.68-3.328-7.68-7.68s3.584-7.68 7.68-7.68h0.256c4.352 0 7.68 3.328 7.68 7.68s-3.328 7.68-7.68 7.68zM1017.088 610.987h-0.256c-4.352 0-7.68-3.328-7.68-7.68s3.584-7.68 7.68-7.68h0.256c4.352 0 7.68 3.328 7.68 7.68s-3.328 7.68-7.68 7.68zM455.936 610.987h-0.256c-4.352 0-7.68-3.328-7.68-7.68s3.584-7.68 7.68-7.68h0.256c4.352 0 7.68 3.328 7.68 7.68 0.256 4.352-3.328 7.68-7.68 7.68zM420.864 610.987h-0.256c-4.352 0-7.68-3.328-7.68-7.68s3.584-7.68 7.68-7.68h0.256c4.352 0 7.68 3.328 7.68 7.68 0.256 4.352-3.328 7.68-7.68 7.68zM385.792 610.987h-0.256c-4.352 0-7.68-3.328-7.68-7.68s3.584-7.68 7.68-7.68h0.256c4.352 0 7.68 3.328 7.68 7.68 0.256 4.352-3.328 7.68-7.68 7.68zM350.72 610.987h-0.256c-4.352 0-7.68-3.328-7.68-7.68s3.584-7.68 7.68-7.68h0.256c4.352 0 7.68 3.328 7.68 7.68 0.256 4.352-3.328 7.68-7.68 7.68zM315.648 610.987h-0.256c-4.352 0-7.68-3.328-7.68-7.68s3.584-7.68 7.68-7.68h0.256c4.352 0 7.68 3.328 7.68 7.68 0.256 4.352-3.328 7.68-7.68 7.68zM280.576 610.987h-0.256c-4.352 0-7.68-3.328-7.68-7.68s3.584-7.68 7.68-7.68h0.256c4.352 0 7.68 3.328 7.68 7.68 0.256 4.352-3.328 7.68-7.68 7.68zM245.504 610.987h-0.256c-4.352 0-7.68-3.328-7.68-7.68s3.584-7.68 7.68-7.68h0.256c4.352 0 7.68 3.328 7.68 7.68 0.256 4.352-3.328 7.68-7.68 7.68zM210.432 610.987h-0.256c-4.352 0-7.68-3.328-7.68-7.68s3.584-7.68 7.68-7.68h0.256c4.352 0 7.68 3.328 7.68 7.68 0.256 4.352-3.328 7.68-7.68 7.68zM175.36 610.987h-0.256c-4.352 0-7.68-3.328-7.68-7.68s3.584-7.68 7.68-7.68h0.256c4.352 0 7.68 3.328 7.68 7.68 0.256 4.352-3.328 7.68-7.68 7.68zM140.288 610.987h-0.256c-4.352 0-7.68-3.328-7.68-7.68s3.584-7.68 7.68-7.68h0.256c4.352 0 7.68 3.328 7.68 7.68 0.256 4.352-3.328 7.68-7.68 7.68zM955.648 658.859c-0.256 51.968-43.52 94.208-96.768 94.208-4.096 0-8.192-0.256-12.032-0.768-21.76 36.352-62.208 60.928-108.544 60.928-59.904 0-109.824-40.96-122.624-95.744-3.584 0.512-7.424 1.024-11.264 1.024-32.512 0-59.648-22.016-66.816-51.712-37.376-8.96-65.024-42.24-65.024-81.664 0-46.336 38.4-84.224 86.016-84.224h355.84c47.36 0 86.016 37.888 86.016 84.224-0.512 31.488-18.432 59.392-44.8 73.728z" />
<glyph unicode="&#xe641;" glyph-name="VDR-Sync-tabletcopy_2" horiz-adv-x="1408" d="M1087.232 610.987h-0.256c-4.352 0-7.68-3.328-7.68-7.68s3.584-7.68 7.68-7.68h0.256c4.352 0 7.68 3.328 7.68 7.68s-3.328 7.68-7.68 7.68zM745.984 659.371c-22.528 0-40.96-18.432-40.96-40.96s18.432-40.96 40.96-40.96c22.528 0 40.96 18.432 40.96 40.96s-18.432 40.96-40.96 40.96zM145.664 247.211c-12.8 0-23.040-10.24-23.040-23.040s10.24-23.040 23.040-23.040c12.8 0 23.040 10.24 23.040 23.040s-10.24 23.040-23.040 23.040zM921.344 236.459c-12.8 0-23.040-10.24-23.040-23.040s10.24-23.040 23.040-23.040c12.8 0 23.040 10.24 23.040 23.040s-10.24 23.040-23.040 23.040zM508.16 224.427c-8.448 0-15.36-6.912-15.36-15.36s6.912-15.36 15.36-15.36c8.448 0 15.36 6.912 15.36 15.36s-6.912 15.36-15.36 15.36zM1315.84 224.171c-12.8 0-23.040-10.24-23.040-23.040s10.24-23.040 23.040-23.040c12.8 0 23.040 10.24 23.040 23.040s-10.496 23.040-23.040 23.040z" />
<glyph unicode="&#xe642;" glyph-name="VDR-Sync-tabletcopy_3" horiz-adv-x="1408" d="M145.664 241.067c-5.632 0-11.52-4.096-11.52-11.008 0-2.048 0.768-4.096 2.048-5.888s5.632-4.352 7.936-5.888h0.512c0-1.536 0.512-2.56 2.048-2.56s2.304 1.28 2.304 2.56c0 0.768-0.256 1.536-1.28 2.304v0c0 0-6.912 4.608-7.936 5.888-0.768 1.024-1.28 2.048-1.28 3.584 0 3.84 3.328 6.912 7.168 6.912 4.096 0 7.68-2.816 7.936-6.4 0-1.024 1.024-2.048 2.048-2.048 0.512 0 1.024 0.256 1.536 0.768 0.256 0.256 0.512 0.768 0.512 1.28-0.768 6.656-6.656 10.496-12.032 10.496zM147.712 230.571h-0.512c0 1.536-0.768 2.56-2.048 2.56-1.536 0-2.304-1.28-2.304-2.56 0-0.768 0.256-1.536 1.28-2.304v0c0 0 6.912-4.608 7.936-5.888 0.768-1.024 1.28-2.048 1.28-3.584 0-3.84-3.328-6.912-7.168-6.912-4.096 0-7.68 2.816-7.936 6.4 0 1.024-1.024 2.048-2.048 2.048-0.512 0-1.024-0.256-1.536-0.768-0.256-0.256-0.512-0.768-0.512-1.28 0.512-6.4 6.4-10.24 11.776-10.24 5.632 0 11.52 4.096 11.52 11.008 0 2.048-0.768 4.096-2.304 5.888-1.28 1.536-5.376 4.096-7.424 5.632zM510.464 213.419h0.256c0 1.024-1.28 1.792-2.048 1.792-1.024 0-1.792-0.768-1.792-1.792 0-0.512 0-1.024 0.768-1.536v0c0 0 4.608-3.072 5.12-3.84s0.768-1.28 0.768-2.304c0-2.56-2.048-4.352-4.864-4.352s-5.12 1.792-5.12 4.096c0 0.768-0.768 1.28-1.28 1.28-0.256 0-0.768-0.256-1.024-0.512s-0.256-0.512-0.256-0.768c0.256-4.096 4.096-6.656 7.68-6.656 3.84 0 7.68 2.56 7.68 7.168 0 1.28-0.256 2.56-1.28 3.84-1.024 1.024-3.328 2.56-4.608 3.584zM508.416 220.331c-3.84 0-7.68-2.56-7.68-7.168 0-1.28 0.512-2.56 1.28-3.84 0.768-1.024 4.096-2.816 5.376-3.84h0.512c0-1.024 0.256-1.792 1.024-1.792 1.024 0 1.28 0.768 1.28 1.792 0 0.512-0.256 1.024-1.024 1.536v0c0 0-4.608 3.072-5.376 3.84-0.512 0.768-0.768 1.28-0.768 2.304 0 2.56 2.048 4.352 4.608 4.352 2.816 0 5.12-1.792 5.12-4.096 0-0.768 0.768-1.28 1.28-1.28 0.256 0 0.768 0.256 1.024 0.512s0.256 0.512 0.256 0.768c0.512 4.352-3.328 6.912-6.912 6.912zM750.848 629.675h0.512c0 2.56-2.56 4.608-5.12 4.608s-4.864-2.048-4.864-4.608c0-1.28 0.256-2.816 2.048-4.096v0c0 0 12.288-8.192 14.080-10.752 1.536-1.792 2.048-3.84 2.048-6.144 0-6.656-5.632-12.288-12.8-12.288-7.424 0-13.568 4.864-14.080 11.264 0 1.792-1.792 3.584-3.84 3.584-1.024 0-2.048-0.512-2.56-1.28s-1.024-1.536-1.024-2.56c0.768-11.264 11.264-18.176 20.992-18.176 10.24 0 20.48 7.168 20.48 19.456 0 3.84-1.024 7.168-3.328 10.24-2.304 3.584-8.704 8.192-12.544 10.752zM741.632 608.683h-0.512c0-2.56 2.56-4.608 5.12-4.608s4.864 2.048 4.864 4.608c0 1.28-0.256 2.816-2.048 4.096v0c0 0-12.288 8.192-14.080 10.752-1.536 1.792-2.048 3.84-2.048 6.144 0 6.656 5.632 12.288 12.8 12.288 7.424 0 13.568-4.864 14.080-11.264 0-1.792 1.792-3.584 3.84-3.584 1.024 0 2.048 0.512 2.56 1.28s1.024 1.536 1.024 2.56c-0.768 11.264-11.264 18.176-20.992 18.176-10.24 0-20.48-7.168-20.48-19.456 0-3.84 1.28-7.168 3.584-10.24 2.048-3.584 8.448-8.448 12.288-10.752zM921.344 230.315c-5.632 0-11.52-4.096-11.52-11.008 0-2.048 0.768-4.096 2.048-5.888s5.632-4.352 7.936-5.888h0.512c0-1.536 0.512-2.56 2.048-2.56s2.304 1.28 2.304 2.56c0 0.768-0.256 1.536-1.28 2.304v0c0 0-6.912 4.608-7.936 5.888-0.768 1.024-1.28 2.048-1.28 3.584 0 3.84 3.328 6.912 7.168 6.912 4.096 0 7.68-2.816 7.936-6.4 0-1.024 1.024-2.048 2.048-2.048 0.512 0 1.024 0.256 1.536 0.768 0.256 0.256 0.512 0.768 0.512 1.28-0.768 6.912-6.656 10.496-12.032 10.496zM923.392 219.819h-0.512c0 1.536-0.768 2.56-2.048 2.56-1.536 0-2.304-1.28-2.304-2.56 0-0.768 0.256-1.536 1.28-2.304v0c0 0 6.912-4.608 7.936-5.888 0.768-1.024 1.28-2.048 1.28-3.584 0-3.84-3.328-6.912-7.168-6.912-4.096 0-7.68 2.816-7.936 6.4 0 1.024-1.024 2.048-2.048 2.048-0.512 0-1.024-0.256-1.536-0.768-0.256-0.256-0.512-0.768-0.512-1.28 0.512-6.4 6.4-10.24 11.776-10.24 5.632 0 11.52 4.096 11.52 11.008 0 2.048-0.768 4.096-2.304 5.888-1.28 1.536-5.376 4.352-7.424 5.632zM1314.048 195.755h0.512c0-1.536 0.768-2.56 2.048-2.56 1.536 0 2.304 1.28 2.304 2.56 0 0.768-0.256 1.536-1.28 2.304v0c0 0-6.912 4.608-7.936 5.888-0.768 1.024-1.28 2.048-1.28 3.584 0 3.84 3.328 6.912 7.168 6.912 4.096 0 7.68-2.816 7.936-6.4 0-1.024 1.024-2.048 2.048-2.048 0.512 0 1.024 0.256 1.536 0.768 0.256 0.256 0.512 0.768 0.512 1.28-0.512 6.4-6.4 10.24-11.776 10.24-5.632 0-11.52-4.096-11.52-11.008 0-2.048 0.768-4.096 2.304-5.888 1.28-1.792 5.376-4.352 7.424-5.632zM1317.632 207.531h-0.512c0 1.536-0.512 2.56-2.048 2.56s-2.304-1.28-2.304-2.56c0-0.768 0.256-1.536 1.28-2.304v0c0 0 6.912-4.608 7.936-5.888 0.768-1.024 1.28-2.048 1.28-3.584 0-3.84-3.328-6.912-7.168-6.912-4.096 0-7.68 2.816-7.936 6.4 0 1.024-1.024 2.048-2.048 2.048-0.512 0-1.024-0.256-1.536-0.768-0.256-0.256-0.512-0.768-0.512-1.28 0.512-6.4 6.4-10.24 11.776-10.24 5.632 0 11.52 4.096 11.52 11.008 0 2.048-1.024 4.096-2.304 5.888-1.024 1.536-5.12 4.096-7.424 5.632z" />
<glyph unicode="&#xe643;" glyph-name="VDR-Sync-tabletcopy_4" horiz-adv-x="1408" d="M552.96 306.347h-89.6c-5.12 0-8.96-4.864-8.96-9.728v-176.128c0-4.864 4.096-8.704 8.96-8.704h89.6c5.12 0 8.96 3.84 8.96 8.704v176.128c0 4.864-3.84 9.728-8.96 9.728zM497.92 298.667h25.6v-2.56h-25.6v2.56zM508.16 119.467c-2.816 0-5.12 2.304-5.12 5.12s2.304 5.12 5.12 5.12 5.12-2.304 5.12-5.12-2.304-5.12-5.12-5.12zM551.68 139.947h-87.040v148.48h87.040v-148.48zM1058.56 311.211c0 4.608-3.84 10.496-8.704 10.496h-257.536c-4.608 0-10.24-5.888-10.24-10.496v-163.584l-32.512-38.144c0-5.376 4.096-13.056 9.216-13.056h322.304c5.12 0 9.216 7.68 9.216 13.056l-31.744 38.144v163.584zM937.728 106.667h-35.584c-3.072 0-5.376 3.84-5.376 6.4 0 0 0 0.256 0 1.28h46.336c0-1.024 0-1.024 0-1.28 0-2.56-2.304-6.4-5.376-6.4zM1040.64 157.867h-240.64v145.92h240.64v-145.92zM1385.472 319.147h-142.592c-5.632 0-10.24-4.608-10.24-10.24v-202.496c0-5.632 4.608-9.984 10.24-9.984h142.592c5.632 0 11.008 4.608 11.008 9.984v202.496c0 5.632-5.376 10.24-11.008 10.24zM1314.56 104.107c-2.816 0-5.12 2.304-5.12 5.12s2.304 5.12 5.12 5.12c2.816 0 5.12-2.304 5.12-5.12s-2.304-5.12-5.12-5.12zM1383.68 122.027h-138.24v181.76h138.24v-181.76zM695.040 667.563c-12.032-12.8-19.2-30.208-19.2-49.152 0-39.424 31.488-71.68 70.4-71.68s70.656 32.256 70.656 71.68c0 19.2-6.4 36.608-19.2 49.408v-0.512 25.088c0 29.696-21.76 54.016-50.688 54.016-2.048 0-4.352-0.256-6.144-0.256-10.24-1.024-20.224-5.12-27.904-11.776-12.032-9.984-17.664-25.088-17.664-41.984v-24.832zM745.984 728.235c6.656 0 12.8-2.048 18.176-5.376 8.96-6.144 15.36-16.128 15.36-27.648v-13.824c-9.984 5.376-21.248 8.704-33.28 8.704s-23.296-3.072-33.28-8.448v13.568c0 6.656 1.792 12.8 4.864 18.176 6.144 8.96 16.64 14.848 28.16 14.848zM713.472 658.859c8.96 7.424 20.224 11.776 32.512 11.776s23.552-4.352 32.512-11.776c11.264-9.728 18.432-24.32 18.432-40.448 0-28.928-22.784-52.736-50.944-52.736s-50.944 23.552-50.944 52.736c0 16.128 7.168 30.72 18.432 40.448zM270.080 329.387h-253.44c-4.864 0-10.24-3.84-10.24-8.448v-180.224c0-4.608 5.376-8.448 10.24-8.448h99.84v-23.040c0 0-3.072-7.424-11.008-9.728-1.536-0.512-6.656-1.536-6.656-1.536-3.072 0-5.376-2.304-5.376-5.376 0-2.816 2.304-6.4 5.376-6.4h89.088c3.072 0 5.376 3.328 5.376 6.4s-2.304 5.376-5.376 5.376c0 0-5.632 1.024-7.424 1.792-4.352 2.048-9.984 6.656-10.24 9.984-0.512 4.352 0 22.784 0 22.784h99.84c4.864 0 10.24 3.84 10.24 8.448v180.224c0 4.352-5.376 8.192-10.24 8.192zM144.64 145.067c-2.816 0-5.12 2.304-5.12 5.12s2.304 5.12 5.12 5.12 5.12-2.304 5.12-5.12-2.304-5.12-5.12-5.12zM267.52 168.107h-248.32v145.92h248.32v-145.92zM145.664 183.979c21.76 0 40.192 18.176 40.192 40.192 0 10.752-5.376 20.48-10.496 27.648v14.080c0 16.64-13.312 30.464-29.696 30.464-1.024 0-2.048 0-3.328-0.256-6.656-0.512-12.544-3.584-17.152-8.448-5.632-5.632-8.96-13.312-8.96-21.76v-13.824c-5.12-7.168-10.496-16.896-10.496-27.648 0.256-22.528 18.176-40.448 39.936-40.448zM126.72 267.435c0 3.84 1.28 7.168 2.816 10.24 3.584 5.12 9.472 8.448 16.128 8.448 3.84 0 7.68-1.024 10.496-3.072 5.12-3.328 8.96-9.216 8.96-15.616v-7.68c-5.12 3.072-12.544 4.864-19.2 4.864s-14.080-1.792-19.2-4.864v7.68zM127.488 246.955c5.12 4.096 11.264 6.656 18.432 6.656 6.912 0 13.312-2.56 18.432-6.656 6.4-5.376 10.24-13.568 10.24-22.784 0-16.384-12.8-29.696-28.672-29.696s-28.672 13.312-28.672 29.696c0 9.216 3.84 17.408 10.24 22.784zM881.664 213.419c0-22.272 17.92-40.192 39.68-40.192s40.192 18.176 40.192 40.192c0 10.752-5.376 20.48-10.496 27.648v4.864c0 0 0 0 0 0v9.216c0 0.256 0 0.256 0 0.512v1.28c0 6.144-2.304 11.776-5.888 16.384-5.376 7.424-14.080 12.288-23.808 12.288-1.024 0-2.304 0-3.328-0.256-11.52-1.024-21.248-9.472-24.576-20.48-1.024-3.072-1.28-6.4-1.28-9.728v-9.216c0 0.256 0 0.256 0 0.512v-5.12c-5.12-7.424-10.496-17.152-10.496-27.904zM921.344 275.115c8.704 0 16.128-5.888 18.688-14.080 0 0 0-0.256 0-0.256 0-0.256 0-0.256 0.256-0.512 0.256-1.28 0.512-2.304 0.512-3.584v-7.68c-5.12 3.072-12.544 4.864-19.2 4.864s-14.080-1.792-19.2-4.864v7.68c0 2.56 0.512 4.864 1.28 6.912 3.072 6.912 9.984 11.52 17.664 11.52zM950.272 213.419c0-16.384-12.8-29.696-28.672-29.696s-28.672 13.312-28.672 29.696c0 9.216 4.096 17.408 10.24 22.784 5.12 4.096 11.264 6.656 18.432 6.656 6.912 0 13.312-2.56 18.432-6.656 6.144-5.376 10.24-13.568 10.24-22.784zM495.104 184.747c3.84-2.048 8.448-3.328 13.056-3.328 4.864 0 9.216 1.28 13.056 3.328 8.96 4.608 14.848 14.080 14.848 24.832 0 7.424-2.56 14.080-7.68 19.2v10.496c0 12.032-9.216 21.504-20.992 21.504-0.768 0-1.28 0-2.048-0.256-4.864-0.512-8.704-2.56-12.032-5.888-4.096-3.84-5.888-9.472-5.888-15.616v-10.496c-5.12-5.12-7.68-11.776-7.68-19.2 0.256-10.496 6.4-19.968 15.36-24.576zM495.36 240.299c0 2.816 0.512 5.12 1.792 7.168 2.56 3.584 6.656 5.888 11.264 5.888 2.816 0 4.864-0.768 6.912-2.048 3.584-2.56 5.632-6.4 5.632-11.008v-5.888c-2.56 2.304-7.936 3.328-12.8 3.328s-10.24-1.28-12.8-3.328v5.888zM495.104 225.707c3.584 2.816 8.192 4.608 13.056 4.608s9.472-1.792 13.056-4.608c4.608-3.84 7.424-9.728 7.424-16.128 0-11.52-9.216-20.992-20.48-20.992s-20.48 9.472-20.48 20.992c0 6.4 2.816 12.288 7.424 16.128zM1315.84 160.939c21.76 0 39.936 18.176 39.936 40.192 0 10.752-5.376 20.48-10.496 27.648v14.080c0 16.64-13.056 30.464-29.44 30.464-1.024 0-2.048 0-3.072-0.256-6.656-0.512-12.8-3.584-17.152-8.448-5.632-5.632-8.96-13.312-8.96-21.76v-13.824c-5.12-7.168-10.496-16.896-10.496-27.648-0.256-22.528 17.664-40.448 39.68-40.448zM1296.64 244.395c0 3.84 1.28 7.168 3.072 10.24 3.584 5.12 9.472 8.448 16.128 8.448 3.84 0 7.424-1.024 10.496-3.072 5.12-3.328 8.704-9.216 8.704-15.616v-7.68c-5.12 3.072-12.544 4.864-19.2 4.864s-14.080-1.792-19.2-4.864v7.68zM1297.664 223.915c5.12 4.096 11.264 6.656 18.432 6.656 6.912 0 13.312-2.56 18.432-6.656 6.4-5.376 10.24-13.568 10.24-22.784 0-16.384-12.8-29.696-28.672-29.696s-28.672 13.312-28.672 29.696c-0.256 9.216 3.84 17.408 10.24 22.784z" />
<glyph unicode="&#xe644;" glyph-name="VDR-Audit-tabletcopy_3" horiz-adv-x="1472" d="M0 938.667h1462.848v-146.272h-1462.848v146.272zM0 365.227h1462.848v-146.272h-1462.848v146.272zM0 60.939h1462.848v-146.272h-1462.848v146.272zM0 649.035h1462.848v-146.272h-1462.848v146.272z" />
<glyph unicode="&#xe645;" glyph-name="VDR-Audit-tabletcopy_2" horiz-adv-x="1472" d="M477.76 742.635h-259.232c-12.576 0-22.528-10.24-22.528-22.528v-1.472c0-12.576 10.24-22.528 22.528-22.528h258.912c12.576 0 22.528 10.24 22.528 22.528v1.472c0.288 12.288-9.952 22.528-22.24 22.528zM931.264 742.635h-267.712c-12.576 0-22.528-10.24-22.528-22.528v-1.472c0-12.576 10.24-22.528 22.528-22.528h267.712c12.576 0 22.528 10.24 22.528 22.528v1.472c0 12.288-10.24 22.528-22.528 22.528zM1182.88 742.635h-92.16c-12.576 0-22.528-10.24-22.528-22.528v-1.472c0-12.576 10.24-22.528 22.528-22.528h92.16c12.576 0 22.528 10.24 22.528 22.528v1.472c0 12.288-10.24 22.528-22.528 22.528zM477.76 169.195h-259.232c-12.576 0-22.528-10.24-22.528-22.528v-1.472c0-12.576 10.24-22.528 22.528-22.528h258.912c12.576 0 22.528 10.24 22.528 22.528v1.472c0.288 12.288-9.952 22.528-22.24 22.528zM931.264 169.195h-267.712c-12.576 0-22.528-10.24-22.528-22.528v-1.472c0-12.576 10.24-22.528 22.528-22.528h267.712c12.576 0 22.528 10.24 22.528 22.528v1.472c0 12.288-10.24 22.528-22.528 22.528zM1090.4 122.379h92.16c12.576 0 22.528 10.24 22.528 22.528v1.472c0 12.576-10.24 22.528-22.528 22.528h-92.16c-12.576 0-22.528-10.24-22.528-22.528v-1.472c0-12.288 10.24-22.528 22.528-22.528zM196.032 433.387v-1.472c0-12.576 10.24-22.528 22.528-22.528h197.472c12.576 0 22.528 10.24 22.528 22.528v1.472c0 12.576-10.24 22.528-22.528 22.528h-197.472c-12.288 0-22.528-10.24-22.528-22.528zM640.736 433.387v-1.472c0-12.576 10.24-22.528 22.528-22.528h162.368c12.576 0 22.528 10.24 22.528 22.528v1.472c0 12.576-10.24 22.528-22.528 22.528h-162.368c-12.288 0-22.528-10.24-22.528-22.528zM1090.4 409.099h57.056c12.576 0 22.528 10.24 22.528 22.528v1.472c0 12.576-10.24 22.528-22.528 22.528h-57.056c-12.576 0-22.528-10.24-22.528-22.528v-1.472c0-12.288 10.24-22.528 22.528-22.528zM215.904 833.355h97.12c12.576 0 22.816 10.24 22.816 22.816v1.184c0 12.576-10.24 22.816-22.816 22.816h-97.12c-12.576 0-22.816-10.24-22.816-22.816v-1.184c0-12.576 10.24-22.816 22.816-22.816zM660.64 833.355h162.080c12.576 0 22.816 10.24 22.816 22.816v1.184c0 12.576-10.24 22.816-22.816 22.816h-162.080c-12.576 0-22.816-10.24-22.816-22.816v-1.184c0-12.576 10.24-22.816 22.816-22.816zM1087.776 833.355h100.64c12.576 0 22.816 10.24 22.816 22.816v1.184c0 12.576-10.24 22.816-22.816 22.816h-100.64c-12.576 0-22.816-10.24-22.816-22.816v-1.184c0-12.576 10.24-22.816 22.816-22.816zM215.904 259.915h97.12c12.576 0 22.816 10.24 22.816 22.816v1.184c0 12.576-10.24 22.816-22.816 22.816h-97.12c-12.576 0-22.816-10.24-22.816-22.816v-1.184c0-12.576 10.24-22.816 22.816-22.816zM660.64 259.915h162.080c12.576 0 22.816 10.24 22.816 22.816v1.184c0 12.576-10.24 22.816-22.816 22.816h-162.080c-12.576 0-22.816-10.24-22.816-22.816v-1.184c0-12.576 10.24-22.816 22.816-22.816zM1188.416 306.699h-100.64c-12.576 0-22.816-10.24-22.816-22.816v-1.184c0-12.576 10.24-22.816 22.816-22.816h100.64c12.576 0 22.816 10.24 22.816 22.816v1.184c0 12.576-10.24 22.816-22.816 22.816zM378.016 2.443h-162.080c-12.576 0-22.816-10.24-22.816-22.816v-1.184c0-12.576 10.24-22.816 22.816-22.816h162.080c12.576 0 22.816 10.24 22.816 22.816v1.184c0 12.576-10.24 22.816-22.816 22.816zM766.528 2.443h-105.92c-12.576 0-22.816-10.24-22.816-22.816v-1.184c0-12.576 10.24-22.816 22.816-22.816h105.92c12.576 0 22.816 10.24 22.816 22.816v1.184c0 12.576-10.24 22.816-22.816 22.816zM1188.416 2.443h-100.64c-12.576 0-22.816-10.24-22.816-22.816v-1.184c0-12.576 10.24-22.816 22.816-22.816h100.64c12.576 0 22.816 10.24 22.816 22.816v1.184c0 12.576-10.24 22.816-22.816 22.816zM215.904 543.691h176.128c12.576 0 22.816 10.24 22.816 22.816v1.184c0 12.576-10.24 22.816-22.816 22.816h-176.128c-12.576 0-22.816-10.24-22.816-22.816v-1.184c0-12.576 10.24-22.816 22.816-22.816zM660.64 543.691h97.12c12.576 0 22.816 10.24 22.816 22.816v1.184c0 12.576-10.24 22.816-22.816 22.816h-97.12c-12.576 0-22.816-10.24-22.816-22.816v-1.184c0-12.576 10.24-22.816 22.816-22.816zM1328.864 590.507h-241.088c-12.576 0-22.816-10.24-22.816-22.816v-1.184c0-12.576 10.24-22.816 22.816-22.816h241.088c12.576 0 22.816 10.24 22.816 22.816v1.184c0 12.576-10.24 22.816-22.816 22.816z" />
<glyph unicode="&#xe646;" glyph-name="VDR-Audit-tabletcopy_4" horiz-adv-x="1472" d="M125.504 721.867v0c4.672 2.912 7.008 9.056 7.008 15.52 0 12.864 1.472 16.96-12.576 16.96s-12.576-4.384-12.576-16.96c0-6.432 2.336-12.576 7.008-15.52h-0.288c-9.376-2.048-23.392-14.336-23.392-27.2v-4.96h58.528v4.96c0 13.152-14.048 25.152-23.712 27.2zM125.504 148.427v0c4.672 2.912 7.008 9.056 7.008 15.52 0 12.864 1.472 16.96-12.576 16.96s-12.576-4.384-12.576-16.96c0-6.432 2.336-12.576 7.008-15.52h-0.288c-9.376-2.048-23.392-14.336-23.392-27.2v-4.96h58.528v4.96c0 13.152-14.048 25.152-23.712 27.2zM127.84 861.131v0c4.384 2.624 6.72 8.768 6.72 14.912 0 12.288 1.472 16.384-12.288 16.384s-12.288-4.096-12.288-16.384c0-6.144 2.336-12 7.008-14.912h-0.288c-9.056-2.048-22.816-13.76-22.816-26.048v-4.672h57.056v4.672c-0.288 12.288-14.048 24-23.104 26.048zM127.84 287.691v0c4.384 2.624 6.72 8.768 6.72 14.912 0 12.288 1.472 16.384-12.288 16.384s-12.288-4.096-12.288-16.384c0-6.144 2.336-12 7.008-14.912h-0.288c-9.056-2.048-22.816-13.76-22.816-26.048v-4.672h57.056v4.672c-0.288 12.288-14.048 24-23.104 26.048zM127.84-16.565v0c4.384 2.624 6.72 8.768 6.72 14.912 0 12.288 1.472 16.384-12.288 16.384s-12.288-4.096-12.288-16.384c0-6.144 2.336-12 7.008-14.912h-0.288c-9.056-2.048-22.816-13.76-22.816-26.048v-4.672h57.056v4.672c-0.288 12.288-14.048 24-23.104 26.048zM127.84 571.499v0c4.384 2.624 6.72 8.768 6.72 14.912 0 12.288 1.472 16.384-12.288 16.384s-12.288-4.096-12.288-16.384c0-6.144 2.336-12 7.008-14.912h-0.288c-9.056-2.048-22.816-13.76-22.816-26.048v-4.672h57.056v4.672c-0.288 12.288-14.048 24-23.104 26.048z" />
<glyph unicode="&#xe647;" glyph-name="VDR-Audit-tabletcopy_5" horiz-adv-x="1472" d="M0 505.675v-146.272h1462.848v146.272h-1462.848zM118.208 392.715c-23.392 0-42.432 19.296-42.432 42.72 0 23.712 19.008 42.72 42.432 42.72s42.432-19.296 42.432-42.72c0.288-23.392-18.72-42.72-42.432-42.72z" />
<glyph unicode="&#xe648;" glyph-name="VDR-Audit-tabletcopy_6" horiz-adv-x="1472" d="M155.072 435.435c0-20.352-16.512-36.864-36.864-36.864s-36.864 16.512-36.864 36.864c0 20.352 16.512 36.864 36.864 36.864s36.864-16.512 36.864-36.864z" />
<glyph unicode="&#xe649;" glyph-name="VDR-Audit-tabletcopy_7" horiz-adv-x="1472" d="M113.216 415.563c-1.472 0-2.624 0.576-3.52 1.472l-11.424 12.288c-1.76 1.76-1.472 4.672 0.288 6.432 2.048 1.76 4.96 1.472 6.72-0.288l7.328-7.904 17.856 25.76c1.472 2.048 4.384 2.624 6.72 1.184s2.912-4.384 1.184-6.432l-21.344-30.432c-0.864-1.184-2.048-2.048-3.808-2.048 0.288 0 0 0 0 0z" />
</font>
</defs>
</svg>
